<svg width="105" height="105" viewBox="0 0 105 105" fill="none" xmlns="http://www.w3.org/2000/svg">
<path d="M1.22134 85.8253C4.32506 93.3234 11.5599 96.8782 16.1839 99.1502C34.4095 108.106 62.0751 107.098 81.9713 90.8377C86.6269 87.0327 109.572 67.0964 104.186 40.0488C99.4247 16.1386 75.6223 2.23663 55.5896 0.364983C38.993 -1.18503 13.4302 1.84406 5.79099 16.4159C0.987542 25.5791 10.6791 31.4727 6.76912 52.2452C3.38485 70.2242 -2.57491 76.654 1.22134 85.8253Z" fill="#CADDFF"/>
<path d="M49.3861 64.4012C54.3134 50.111 53.0294 44.1461 50.6106 41.4042C49.8878 40.5858 48.2234 39.0898 47.0633 36.357C45.5595 32.8125 46.3683 30.6331 46.0018 27.6192C45.2827 21.7256 40.5273 16.4171 35.5381 14.0795C32.054 12.4471 25.4763 10.8667 21.7925 14.3049C20.2356 15.7586 18.776 18.5003 19.6644 20.3213C20.9344 22.9249 26.0601 21.0203 28.8593 24.4331C30.3859 26.2959 29.3066 27.39 30.9444 29.3541C33.5262 32.4478 37.4084 31.17 38.384 33.4355C39.3293 35.6288 35.8957 37.4043 36.6363 40.2594C37.4805 43.5158 42.3698 43.5682 42.8349 46.7346C43.1129 48.6199 41.4372 48.9895 41.5206 51.199C41.6242 53.8874 44.1605 54.808 46.7525 58.6051C48.2058 60.7341 48.9071 62.8056 49.3861 64.4012Z" fill="#99B9FF"/>
<path d="M49.4267 63.1661C49.323 63.1661 49.2384 63.0822 49.2371 62.9778C49.1309 51.1501 46.2269 38.8213 41.4715 30C35.1945 18.3572 27.0978 15.5066 27.0169 15.48C26.9171 15.4459 26.864 15.3382 26.8981 15.2394C26.931 15.1394 27.0384 15.0862 27.1382 15.1191C27.2229 15.1483 29.2436 15.846 32.0781 18.0127C34.6865 20.006 38.4903 23.672 41.8051 29.8189C43.961 33.818 45.8174 38.7643 47.1747 44.1227C48.7379 50.294 49.5594 56.6366 49.6162 62.9744C49.6175 63.0793 49.5328 63.1651 49.4292 63.1661C49.4279 63.1661 49.4279 63.1661 49.4267 63.1661Z" fill="#CADDFF"/>
<path d="M40.0881 74.6887C40.6492 73.2301 44.3051 63.5082 42.541 57.8059C42.2958 57.0126 41.9142 55.7806 40.8008 54.7979C38.5779 52.835 36.3272 54.4199 34.5567 52.987C32.2239 51.0975 34.8853 47.3251 32.3401 41.8746C31.7298 40.5672 30.7794 38.5313 28.6829 37.5068C26.3412 36.3621 24.9814 37.6563 22.6713 36.7749C19.7913 35.6757 20.1021 32.9759 17.394 30.276C14.5392 27.4331 8.96868 25.222 4.85396 27.4647C1.26749 29.4212 0.147806 34.0219 0.315883 37.17C0.566102 41.822 3.75198 45.6257 7.08823 47.3819C11.8854 49.9064 16.7419 48.0685 17.3839 49.8967C17.9803 51.599 13.7949 53.2646 14.011 56.4521C14.1626 58.6778 16.407 60.8532 18.6994 61.4159C21.8777 62.1957 23.7227 59.5275 25.6196 60.5447C27.6074 61.6112 26.4992 65.0392 27.9208 68.1484C29.0936 70.713 32.1544 73.4291 40.0881 74.6887Z" fill="#99B9FF"/>
<path d="M40.2023 73.6385C40.1151 73.6385 40.0355 73.5774 40.0165 73.4879C37.2869 60.5602 29.223 51.3087 22.9385 45.824C16.127 39.8784 9.88663 36.9585 9.8247 36.9294C9.72992 36.885 9.68824 36.7723 9.73121 36.6774C9.77544 36.5824 9.88789 36.5406 9.98267 36.5849C10.0459 36.614 16.3355 39.557 23.1874 45.5376C27.2124 49.0508 30.6447 52.9106 33.387 57.01C36.8168 62.1368 39.1724 67.6543 40.3881 73.4092C40.4095 73.5119 40.3438 73.6127 40.2415 73.6345C40.2288 73.6371 40.2149 73.6385 40.2023 73.6385Z" fill="white"/>
<path d="M85.5552 99.5996H38.5431C36.5173 99.5996 35.083 97.9622 35.3383 95.9425L46.914 4.48058C47.1693 2.46077 49.0182 0.823387 51.0452 0.823387L95.6966 0.301651C100.821 0.301651 101.517 2.46077 101.261 4.48058L89.685 95.9425C89.4298 97.9622 87.581 99.5996 85.5552 99.5996Z" fill="#99B9FF"/>
<path d="M82.7261 99.5996H35.7152C33.6895 99.5996 32.2539 97.954 32.5091 95.9238L44.0849 3.99557C44.3402 1.96562 46.1903 0.319374 48.2161 0.319374H95.2269C97.2539 0.319374 98.6883 1.96562 98.433 3.99557L86.8572 95.9238C86.6019 97.954 84.7518 99.5996 82.7261 99.5996Z" fill="white"/>
<path d="M35.1881 96.0504L46.2407 8.27452C46.3001 7.80597 46.7272 7.42607 47.1948 7.42607H94.4584C94.926 7.42607 95.2583 7.80597 95.1989 8.27452L84.1463 96.0504C84.0869 96.5192 83.6598 96.8991 83.1922 96.8991H35.9286C35.4611 96.8991 35.1287 96.5192 35.1881 96.0504Z" fill="white"/>
<path d="M83.1684 21.8941L62.7099 41.5115L60.9824 55.2386L65.413 63.7671H77.8949L83.1684 21.8941Z" fill="#CADDFF"/>
<path d="M82.6283 96.8991H83.2299C83.676 96.8991 84.0842 96.5355 84.141 96.0885L86.0253 81.126H74.433L82.6283 96.8991Z" fill="#CADDFF"/>
<path d="M47.1643 65.1174C47.2578 64.3717 47.9377 63.7671 48.682 63.7671H58.9941L55.7387 57.5025C55.5113 57.0655 55.4253 56.5563 55.491 56.0359L57.1124 43.1598H41.8478L37.407 78.4256H45.4886L47.1643 65.1174Z" fill="#CADDFF"/>
<path d="M86.2329 18.9549L80.4198 65.1174C80.3263 65.8632 79.6464 66.4677 78.9033 66.4677H66.817L73.0295 78.4256H86.3656L93.9708 18.0305H87.1959L86.2329 18.9549Z" fill="#CADDFF"/>
<path d="M87.0291 12.6295H94.6507L95.2042 8.23656C95.2598 7.78955 94.9426 7.4261 94.4965 7.4261H87.685L87.0291 12.6295Z" fill="#CADDFF"/>
<path d="M57.792 37.7588L61.6122 7.42604H47.1564C46.7103 7.42604 46.3021 7.78948 46.2452 8.2365L42.5273 37.7588H57.792Z" fill="#CADDFF"/>
<path d="M68.0131 81.126H47.8427L45.8574 96.8991H76.2097L68.0131 81.126Z" fill="#CADDFF"/>
<path d="M48.1846 78.4256H66.611L60.3973 66.4677H49.6897L48.1846 78.4256Z" fill="#CADDFF"/>
<path d="M45.1484 81.126H37.0669L35.1827 96.0885C35.1271 96.5355 35.4442 96.8991 35.8903 96.8991H43.1618L45.1484 81.126Z" fill="#CADDFF"/>
<path d="M84.9886 7.42608H67.0019L63.715 33.5292L84.1723 13.911L84.9886 7.42608Z" fill="#CADDFF"/>
<path d="M71.1325 4.99469C70.3743 4.99469 69.8359 4.37799 69.932 3.61818C70.028 2.85711 70.7206 2.24167 71.4801 2.24167C72.2383 2.24167 72.7767 2.85711 72.6806 3.61818C72.5846 4.37799 71.892 4.99469 71.1325 4.99469Z" fill="#CADDFF"/>
<path d="M64.0489 97.0891H35.9283C35.6478 97.0891 35.3963 96.9788 35.2206 96.7784C35.0424 96.5766 34.9641 96.3095 34.9995 96.0267L46.0521 8.25049C46.1228 7.69077 46.6359 7.23614 47.1945 7.23614H94.4581C94.7386 7.23614 94.9901 7.34631 95.1657 7.54639C95.3439 7.74901 95.4223 8.01495 95.3869 8.29861L86.4662 79.138C86.4536 79.2421 86.3588 79.3152 86.2551 79.3028C86.1503 79.2896 86.077 79.1945 86.0909 79.0905L95.0103 8.25049C95.0318 8.07826 94.9863 7.91618 94.8814 7.79713C94.779 7.68063 94.6287 7.61604 94.4581 7.61604H47.1945C46.8191 7.61604 46.4767 7.92123 46.4286 8.29861L35.376 96.0742C35.3546 96.2473 35.4001 96.4083 35.505 96.5273C35.6073 96.6446 35.7577 96.7092 35.9283 96.7092H64.0489C64.1537 96.7092 64.2384 96.7941 64.2384 96.8991C64.2384 97.004 64.1537 97.0891 64.0489 97.0891Z" fill="black"/>
<path d="M62.9117 99.7896H35.7149C34.685 99.7896 33.765 99.388 33.123 98.6588C32.4747 97.9221 32.1904 96.9422 32.3205 95.9001L43.8963 3.97149C44.163 1.8529 46.1015 0.12941 48.2157 0.12941H95.2266C96.2565 0.12941 97.1765 0.530838 97.8185 1.26025C98.4668 1.99726 98.7524 2.97741 98.6209 4.01961L90.2348 70.6187C90.2209 70.7229 90.1274 70.7963 90.0225 70.7834C89.9189 70.7704 89.8456 70.6753 89.8582 70.5712L98.2444 3.97149C98.3619 3.03946 98.1091 2.16568 97.5341 1.51225C96.9654 0.865143 96.1466 0.509315 95.2266 0.509315H48.2157C46.2847 0.509315 44.5168 2.08337 44.2729 4.01961L32.6971 95.9476C32.5796 96.88 32.8323 97.7538 33.4073 98.4077C33.976 99.0538 34.7949 99.4096 35.7149 99.4096H62.9117C63.0166 99.4096 63.1012 99.4947 63.1012 99.5996C63.1012 99.7045 63.0166 99.7896 62.9117 99.7896Z" fill="black"/>
<path d="M70.519 54.1847C69.1301 54.1847 67.7312 54.0118 66.3499 53.6618C61.9724 52.5538 58.2886 49.8039 55.9747 45.919C54.3167 43.1338 53.4927 39.9563 53.5938 36.7293C53.6911 33.5887 54.6516 30.5432 56.3715 27.9231C56.4296 27.8345 56.5472 27.8104 56.6344 27.8687C56.7216 27.9257 56.7456 28.0434 56.6887 28.1308C53.2286 33.4026 53.0757 40.3089 56.3007 45.7243C58.5616 49.5223 62.1632 52.2103 66.4422 53.2936C70.7212 54.3768 75.1645 53.7255 78.9557 51.4595C81.1786 50.1299 83.0097 48.356 84.3973 46.187C84.4529 46.0987 84.5704 46.0727 84.6589 46.1296C84.7473 46.1861 84.7726 46.3036 84.7158 46.392C83.2966 48.6109 81.4237 50.4257 79.149 51.7859C76.4964 53.3718 73.5305 54.1847 70.519 54.1847Z" fill="white"/>
<path d="M60.0015 66.2321C60.584 66.4871 61.2589 66.2171 61.5091 65.629L65.0728 57.2467L62.9611 56.3229L59.3987 64.7052C59.1485 65.2935 59.4176 65.977 60.0015 66.2321Z" fill="black"/>
<path d="M52.859 41.256C50.6209 31.4601 56.6552 21.7181 66.3392 19.4956C76.0232 17.2732 85.6882 23.4124 87.9275 33.2076C90.1656 43.0037 84.1313 52.7463 74.4473 54.9687C64.7633 57.1912 55.0983 51.0518 52.859 41.256ZM50.1975 41.8669C52.7756 53.1497 63.909 60.221 75.0627 57.6613C86.2164 55.1014 93.1682 43.8797 90.5889 32.5972C88.0097 21.3141 76.8775 14.2428 65.7238 16.8021C54.5701 19.3627 47.6183 30.5837 50.1975 41.8669Z" fill="black"/>
<path d="M60.3606 70.3439C60.6664 70.4502 61.6383 69.1769 61.867 68.952C62.763 68.0695 64.8431 67.0305 65.2639 65.1859C65.8086 62.7933 64.7698 60.2272 64.1619 60.3064C63.5541 60.3856 62.7819 64.9252 60.3998 65.0906C60.3998 65.0906 59.864 65.0274 59.9221 62.7858C59.9309 62.4718 59.5948 62.2539 59.3168 62.3986C58.9351 62.5979 58.4486 63.0248 58.048 63.9364C57.5374 65.1001 57.636 66.4414 57.7169 67.2459C57.77 67.7781 57.5779 69.3743 57.9835 69.5157L60.3606 70.3439Z" fill="white"/>
<path d="M59.5009 62.5427C59.4718 62.5427 59.439 62.5492 59.4049 62.567C59.0801 62.7364 58.6113 63.125 58.2208 64.0128C57.7014 65.1981 57.8442 66.6197 57.9048 67.2268C57.9213 67.3889 57.9162 67.6262 57.9112 67.9009C57.9036 68.2677 57.8846 69.2418 58.0464 69.337L60.4057 70.1586C60.613 70.1134 61.2512 69.3682 61.4635 69.121C61.5823 68.9829 61.6758 68.874 61.7339 68.8167C61.9791 68.5742 62.3102 68.3213 62.6615 68.0533C63.6068 67.3309 64.7846 66.4319 65.0778 65.1438C65.5264 63.1808 64.8579 61.1587 64.3739 60.6252C64.274 60.5153 64.2071 60.4916 64.1856 60.4948C64.0718 60.5526 63.8229 61.1419 63.6219 61.6152C63.0229 63.0275 62.1181 65.1616 60.4133 65.28L60.3956 65.2813L60.3779 65.2791C60.2111 65.2596 59.6741 65.0216 59.7334 62.781C59.7347 62.699 59.693 62.6234 59.6222 62.5785C59.6007 62.5652 59.5565 62.5427 59.5009 62.5427ZM60.3982 70.54C60.364 70.54 60.3299 70.5345 60.2983 70.5232L57.92 69.6951C57.5295 69.5588 57.5131 68.8932 57.532 67.8935C57.5371 67.6419 57.5409 67.4043 57.527 67.2649C57.4638 66.6281 57.3134 65.1366 57.8745 63.86C58.308 62.8709 58.8514 62.4277 59.2292 62.23C59.4175 62.1318 59.6399 62.1415 59.8232 62.2564C60.0102 62.3733 60.1176 62.5731 60.1113 62.7909C60.0683 64.4727 60.3628 64.8341 60.4348 64.8971C61.8793 64.7545 62.7171 62.7789 63.2732 61.4668C63.6573 60.5596 63.8393 60.1568 64.1376 60.118C64.3082 60.0951 64.4826 60.1806 64.6544 60.3698C65.2888 61.0693 65.8979 63.2563 65.448 65.2284C65.1233 66.6506 63.8861 67.5959 62.8915 68.3556C62.5503 68.616 62.2281 68.8618 61.9993 69.0875C61.9526 69.1338 61.859 69.2424 61.7516 69.3684C61.0869 70.143 60.6913 70.54 60.3982 70.54Z" fill="black"/>
<path d="M61.9062 69.8591L57.1167 68.0956C55.235 71.4642 53.2155 74.3585 50.9648 76.1711C49.6417 77.2366 48.2074 78.1047 46.7023 78.7794C46.0262 79.0828 45.2338 78.7689 44.9621 78.0772C44.2152 76.1724 42.9742 73.1716 40.7741 69.6342C39.1211 66.9768 36.3776 64.7962 34.099 63.6638C30.5593 61.9043 26.4434 61.0546 22.522 61.8386C14.956 63.3515 9.78104 67.7711 9.78104 67.7711C5.66381 71.0647 -1.94133 82.5492 0.770636 88.079C4.09551 94.8609 13.0592 90.8932 13.0592 90.8932C13.0592 90.8932 13.9299 92.317 12.0596 96.6465C9.78737 101.906 13.0794 102.61 13.0794 102.61C20.7313 106.358 41.0003 105.521 39.2715 101.335C37.4214 96.8537 37.3911 91.1736 37.3911 91.1736C39.9476 93.7077 43.438 93.3098 43.438 93.3098C43.438 93.3098 45.4562 93.1576 46.8488 92.5834C58.9579 88.5573 61.9062 69.8591 61.9062 69.8591Z" fill="#5479F7"/>
<path d="M13.1739 87.5853C13.0943 87.5853 13.021 87.5359 12.9944 87.4574C10.4606 80.1128 11.6372 74.18 11.6498 74.121C11.6713 74.0183 11.7724 73.9519 11.8735 73.9735C11.9759 73.9946 12.0416 74.095 12.0214 74.1977C12.0087 74.2559 10.8549 80.0927 13.3521 87.3333C13.3862 87.4324 13.3344 87.5406 13.2358 87.5749C13.2143 87.5818 13.1941 87.5853 13.1739 87.5853Z" fill="black"/>
<path d="M37.2402 91.4031C37.1922 91.4031 37.1442 91.3852 37.1075 91.349C33.147 87.474 30.3908 78.4729 30.2758 78.0916C30.2455 77.9912 30.3011 77.8851 30.4022 77.8547C30.502 77.8242 30.6081 77.8811 30.6385 77.9814C30.6663 78.0738 33.4819 87.2706 37.3729 91.0772C37.4475 91.1506 37.4487 91.2707 37.3754 91.3458C37.3388 91.384 37.2895 91.4031 37.2402 91.4031Z" fill="black"/>
<path d="M26.8431 43.8786C28.3723 43.8857 29.7813 44.7142 30.5497 46.0397C30.9048 46.6536 31.2283 47.2258 31.2927 47.3874C31.4419 47.7555 31.7704 48.9922 32.9722 50.1843C33.091 50.302 33.1075 50.488 33.0038 50.6198L32.2342 51.6069C32.1811 51.6749 32.1597 51.7617 32.1748 51.8468C32.2658 52.3731 32.7245 54.2835 32.5893 54.6282C32.3012 55.3587 30.5585 55.5568 30.0416 55.5997C29.9443 55.6078 29.8584 55.6623 29.8117 55.7475C29.6436 56.0503 29.2013 56.9181 28.8386 59.0825C28.2863 62.3811 31.4242 62.8937 30.7847 63.217C26.3276 65.4718 18.1183 64.9594 18.5948 64.0213C18.9865 63.2498 23.4905 61.2532 23.9087 55.828C24.1703 52.4449 19.4427 52.1669 22.8498 45.7272C23.6409 44.2306 25.3557 43.8717 26.8431 43.8786Z" fill="white"/>
<path d="M18.7695 64.0966C18.7897 64.1209 18.8618 64.1867 19.093 64.2672C20.6954 64.8267 26.8321 64.9538 30.612 63.091C30.5513 63.043 30.4666 62.9836 30.3933 62.9321C29.6983 62.4454 28.2538 61.4329 28.6519 59.0513C28.9072 57.5289 29.2421 56.3865 29.6452 55.6554C29.7235 55.5155 29.8651 55.4239 30.0256 55.4104C31.005 55.3291 32.2169 55.0572 32.4128 54.5584C32.4962 54.3403 32.2169 52.9979 32.0968 52.4247C32.0501 52.1981 32.0096 52.0023 31.9882 51.8794C31.9642 51.7422 31.9995 51.6003 32.0855 51.49L32.8551 50.5029C32.898 50.4483 32.8905 50.3711 32.8387 50.3194C31.762 49.2512 31.3715 48.1603 31.1832 47.6361C31.1579 47.5644 31.1364 47.5045 31.1187 47.4588C31.0884 47.3854 30.9532 47.116 30.3857 46.1351C29.6515 44.8672 28.293 44.0753 26.8423 44.0685C26.8296 44.0684 26.8157 44.0684 26.8031 44.0684C25.4875 44.0684 23.7802 44.3751 23.0169 45.8162C20.909 49.801 21.9693 51.3272 22.9942 52.8031C23.5869 53.6565 24.1998 54.5392 24.0987 55.8427C23.7701 60.0936 21.0215 62.2506 19.5442 63.4095C19.1739 63.7006 18.8517 63.9533 18.7695 64.0966ZM22.5304 65.0059C20.4882 65.0059 18.8795 64.7459 18.5092 64.3737C18.3803 64.2443 18.35 64.0845 18.4258 63.9352C18.5357 63.7189 18.8441 63.4767 19.3117 63.1103C20.7422 61.9875 23.4049 59.8976 23.7208 55.8132C23.8106 54.6449 23.2633 53.8556 22.6833 53.02C21.6432 51.5237 20.4667 49.8277 22.682 45.6384C23.3569 44.3624 24.7811 43.6885 26.8018 43.6885C26.8157 43.6885 26.8296 43.6885 26.8435 43.6886C28.4295 43.6961 29.9118 44.5604 30.7131 45.9443C31.3803 47.0948 31.4473 47.2612 31.4688 47.3159C31.489 47.3654 31.513 47.4301 31.5408 47.5078C31.719 48.0057 32.0893 49.0418 33.1053 50.0493C33.2936 50.2356 33.3138 50.5312 33.1546 50.7367L32.3837 51.7238C32.3635 51.7499 32.3559 51.7819 32.361 51.8141C32.3812 51.9307 32.4216 52.1237 32.4684 52.347C32.7489 53.6945 32.8715 54.4281 32.7654 54.6978C32.4469 55.5061 30.7661 55.7301 30.0572 55.789C30.023 55.7918 29.9927 55.8108 29.9776 55.8397C29.5947 56.5326 29.2749 57.6343 29.026 59.1141C28.6671 61.259 29.9308 62.1448 30.6107 62.6208C30.9001 62.8234 31.0745 62.9458 31.0606 63.1381C31.0555 63.2102 31.0189 63.312 30.871 63.3866C28.5268 64.5721 25.1678 65.0059 22.5304 65.0059Z" fill="black"/>
<path d="M29.4434 49.0936L31.2265 46.8569C32.1414 45.7093 31.8217 44.019 30.5555 43.2792C30.2041 43.0742 29.7922 42.8598 29.3309 42.661C24.7511 40.6848 19.5029 43.9461 19.4978 48.9429C19.4965 50.9878 20.8614 53.3591 23.7604 55.466C23.7604 55.466 25.7988 53.8556 25.7722 52.1137C25.7722 52.1137 24.2937 50.3557 26.3776 49.4658C26.7769 49.2955 27.2319 49.3089 27.6211 49.5009C28.2479 49.8106 29.0061 49.6412 29.4434 49.0936Z" fill="black"/>
<path d="M26.725 53.1045C26.1323 53.1045 25.3765 52.851 24.8129 51.785C24.7649 51.6922 24.8003 51.5773 24.8925 51.5282C24.9848 51.4791 25.0998 51.5146 25.1491 51.6073C26.0375 53.2903 27.4301 52.5901 27.4895 52.5594C27.583 52.5111 27.6968 52.5468 27.7448 52.6398C27.7941 52.7326 27.7587 52.8469 27.6652 52.8957C27.6576 52.9001 27.257 53.1045 26.725 53.1045Z" fill="black"/>
<path d="M21.8851 44.1993C21.8851 44.1993 20.3383 38.8377 14.6957 39.8473C11.1737 40.4774 8.0965 42.8494 6.40689 46.7211C3.13635 54.213 6.09729 61.3417 0.768131 67.8455C-0.434942 69.3138 0.545724 71.5465 2.44006 71.6122C6.02147 71.7363 10.854 70.8691 14.2104 66.2485C16.9591 62.4624 15.2315 45.058 21.281 45.3196L21.8851 44.1993Z" fill="black"/>
<path d="M51.8052 56.1819L42.35 61.9903L51.8052 56.1819Z" fill="white"/>
<path d="M42.3503 62.1804C42.2859 62.1804 42.2239 62.1482 42.1886 62.0897C42.133 62.0003 42.1608 61.8833 42.2505 61.8285L51.7057 56.0199C51.7942 55.9652 51.9117 55.9929 51.9661 56.0824C52.0204 56.1718 51.9926 56.2888 51.9041 56.3437L42.4489 62.1523C42.4173 62.1713 42.3832 62.1804 42.3503 62.1804Z" fill="black"/>
<path d="M52.7168 51.998L47.7402 55.0551L52.7168 51.998Z" fill="white"/>
<path d="M47.7419 55.245C47.6775 55.245 47.6155 55.2129 47.5789 55.1544C47.5245 55.0649 47.5524 54.9479 47.6421 54.8931L52.6187 51.836C52.7071 51.7813 52.8246 51.8092 52.879 51.8987C52.9333 51.9881 52.9055 52.1051 52.8171 52.1601L47.8405 55.217C47.8089 55.236 47.7748 55.245 47.7419 55.245Z" fill="black"/>
<path d="M97.725 59.403C97.7036 59.403 97.6821 59.3996 97.6619 59.392C97.5633 59.3568 97.5115 59.248 97.5468 59.1493C100.078 52.0368 101.007 44.2939 100.234 36.7571C100.222 36.6533 100.298 36.5596 100.403 36.5482C100.505 36.5381 100.6 36.614 100.61 36.7179C101.39 44.3109 100.455 52.1116 97.9032 59.2769C97.8767 59.3545 97.8034 59.403 97.725 59.403Z" fill="black"/>
<path d="M102.389 52.0378C102.379 52.0378 102.37 52.037 102.36 52.0355C102.257 52.0195 102.186 51.9226 102.201 51.8189C102.669 48.774 102.861 45.6673 102.773 42.585C102.77 42.4801 102.853 42.3928 102.957 42.3897C103.059 42.3826 103.149 42.4691 103.153 42.5741C103.241 45.6793 103.046 48.8092 102.576 51.8766C102.561 51.9706 102.482 52.0378 102.389 52.0378Z" fill="black"/>
<path d="M7.10901 20.6454C7.085 20.6454 7.05971 20.6404 7.03696 20.6315C6.93965 20.591 6.89417 20.4808 6.93334 20.3833C9.33696 14.5303 13.7385 9.93345 20.3883 6.32817C20.4805 6.27751 20.5955 6.3117 20.6461 6.40415C20.6954 6.49659 20.6613 6.61182 20.569 6.66247C13.9989 10.2234 9.65289 14.7595 7.28339 20.5277C7.25432 20.6011 7.18357 20.6454 7.10901 20.6454Z" fill="black"/>
<path d="M6.55171 18.5965C6.53907 18.5965 6.52517 18.5952 6.51254 18.5927C6.41017 18.5699 6.34446 18.4686 6.36595 18.3673C6.75897 16.5285 8.0998 14.3049 10.142 12.1065C11.9681 10.1399 14.191 8.38596 16.0891 7.4134C16.1826 7.36528 16.2963 7.40201 16.3444 7.49572C16.3924 7.58943 16.3557 7.7034 16.2622 7.75152C12.4243 9.71815 7.5349 14.7088 6.73749 18.4458C6.71853 18.5357 6.6389 18.5965 6.55171 18.5965Z" fill="black"/>
<path d="M36.6365 6.06604C36.6264 6.06604 36.6163 6.06477 36.6062 6.0635C36.5026 6.04704 36.4331 5.94953 36.4482 5.84569L36.6024 4.87314C36.6176 4.7693 36.7161 4.69839 36.8185 4.71485C36.9221 4.73131 36.9929 4.82882 36.9765 4.93266L36.8236 5.90521C36.8084 5.99892 36.7275 6.06604 36.6365 6.06604Z" fill="black"/>
<path d="M36.1005 9.46997C36.0904 9.46997 36.0803 9.46997 36.0702 9.46744C35.9678 9.45224 35.8971 9.35474 35.9135 9.2509L36.0664 8.27835C36.0828 8.17451 36.1802 8.10359 36.2825 8.12005C36.3862 8.13652 36.4569 8.23402 36.4405 8.33659L36.2876 9.31042C36.2724 9.40413 36.1915 9.46997 36.1005 9.46997Z" fill="black"/>
<path d="M35.2522 7.07532C35.2408 7.07532 35.2307 7.07405 35.2193 7.07278L34.2652 6.90688C34.1615 6.88915 34.0933 6.79038 34.111 6.68781C34.1287 6.58397 34.226 6.51432 34.3296 6.53205L35.2838 6.69794C35.3874 6.71567 35.4556 6.81445 35.4379 6.91702C35.4228 7.00947 35.3419 7.07532 35.2522 7.07532Z" fill="black"/>
<path d="M38.5909 7.65405C38.5808 7.65405 38.5695 7.65279 38.5581 7.65026L37.604 7.48563C37.5016 7.4679 37.4321 7.36914 37.4498 7.26529C37.4675 7.16272 37.5648 7.09307 37.6697 7.1108L38.6238 7.27668C38.7261 7.29441 38.7957 7.39192 38.778 7.49576C38.7615 7.5882 38.6819 7.65405 38.5909 7.65405Z" fill="black"/>
<path d="M26.5266 32.2794C26.5177 32.2794 26.5076 32.2794 26.4975 32.2781C26.3939 32.2616 26.3231 32.1641 26.3395 32.0603L26.4924 31.0877C26.5089 30.9839 26.6062 30.913 26.7098 30.9294C26.8134 30.9459 26.8829 31.0434 26.8678 31.1472L26.7136 32.1198C26.6997 32.2135 26.6188 32.2794 26.5266 32.2794Z" fill="black"/>
<path d="M25.9918 35.6846C25.9817 35.6846 25.9716 35.6846 25.9615 35.682C25.8579 35.6656 25.7871 35.5693 25.8035 35.4655L25.9564 34.4929C25.9729 34.3891 26.0702 34.3182 26.1738 34.3347C26.2774 34.3511 26.3482 34.4474 26.3318 34.5512L26.1789 35.5238C26.1637 35.6175 26.0828 35.6846 25.9918 35.6846Z" fill="black"/>
<path d="M25.1421 33.2886C25.132 33.2886 25.1207 33.2886 25.1105 33.2861L24.1564 33.1215C24.0528 33.1037 23.9833 33.005 24.001 32.9011C24.0187 32.7986 24.116 32.7289 24.2209 32.7466L25.175 32.9125C25.2774 32.9303 25.3468 33.0278 25.3292 33.1316C25.3127 33.224 25.2331 33.2886 25.1421 33.2886Z" fill="black"/>
<path d="M28.4829 33.8673C28.4715 33.8673 28.4614 33.8673 28.4501 33.8648L27.4959 33.7002C27.3923 33.6812 27.3241 33.5837 27.3418 33.4798C27.3595 33.376 27.4568 33.3063 27.5604 33.3253L28.5145 33.4899C28.6181 33.5089 28.6876 33.6065 28.67 33.7103C28.6535 33.8027 28.5726 33.8673 28.4829 33.8673Z" fill="black"/>
<path d="M22.6392 29.6542C22.5899 29.6542 22.5394 29.6605 22.4901 29.6719C22.3271 29.7112 22.1893 29.8125 22.1021 29.9568C21.9201 30.262 22.02 30.666 22.3271 30.8572C22.4762 30.9509 22.6518 30.9788 22.8199 30.9395C22.9829 30.9003 23.1207 30.799 23.2066 30.6546C23.3899 30.3494 23.2888 29.9454 22.9829 29.7542C22.8768 29.6884 22.7593 29.6542 22.6392 29.6542ZM22.6695 31.3372C22.48 31.3372 22.2929 31.284 22.1274 31.1801C21.6459 30.88 21.4892 30.243 21.7773 29.7618C21.9164 29.5288 22.1388 29.3667 22.4016 29.3034C22.6695 29.2376 22.9463 29.2844 23.1826 29.4313C23.6641 29.7314 23.8208 30.3684 23.5314 30.8496C23.3924 31.0826 23.1712 31.2447 22.9084 31.308C22.8288 31.3283 22.7491 31.3372 22.6695 31.3372Z" fill="black"/>
<path d="M69.9088 23.6657C63.2806 23.6657 57.8882 29.0692 57.8882 35.7111C57.8882 42.353 63.2806 47.7566 69.9088 47.7566C76.5372 47.7566 81.9295 42.353 81.9295 35.7111C81.9295 29.0692 76.5372 23.6657 69.9088 23.6657ZM69.9088 48.1365C63.0715 48.1365 57.509 42.5624 57.509 35.7111C57.509 28.8602 63.0715 23.2858 69.9088 23.2858C76.7461 23.2858 82.3086 28.8602 82.3086 35.7111C82.3086 42.5624 76.7461 48.1365 69.9088 48.1365Z" fill="black"/>
<path d="M82.1191 35.7111C82.1191 42.4685 76.6524 47.9464 69.9088 47.9464C63.1654 47.9464 57.6986 42.4685 57.6986 35.7111C57.6986 28.9539 63.1654 23.4757 69.9088 23.4757C76.6524 23.4757 82.1191 28.9539 82.1191 35.7111Z" fill="white"/>
<path d="M76.5495 34.3435L76.5591 38.416C76.5543 40.0843 73.7871 41.4163 70.3784 41.3911C66.9697 41.3657 64.2104 39.9928 64.2152 38.3245L64.2056 34.251L76.5495 34.3435Z" fill="#5479F7"/>
<path d="M64.396 34.4435L64.4053 38.324C64.4008 39.8864 67.081 41.1766 70.3803 41.2011C72.6739 41.2219 74.8019 40.5897 75.7995 39.6003C76.1769 39.2261 76.3688 38.8275 76.37 38.4156L76.3609 34.5322L64.396 34.4435ZM70.4749 41.5813C70.4424 41.5813 70.41 41.5812 70.3774 41.581C66.8107 41.5544 64.0209 40.1239 64.0262 38.3239L64.0165 34.2523C64.0164 34.2017 64.0364 34.1523 64.0722 34.1168C64.1082 34.0814 64.156 34.0649 64.2074 34.0611L76.5513 34.1535C76.6553 34.1535 76.7392 34.2384 76.7395 34.3435L76.7491 38.4157C76.7477 38.9261 76.5115 39.4289 76.0662 39.8705C74.9987 40.9291 72.8625 41.5813 70.4749 41.5813Z" fill="black"/>
<path d="M63.8653 33.0125L70.2047 30.3608C70.3241 30.319 70.4544 30.3203 70.5736 30.3646L76.8973 33.1088L79.4177 33.1278L79.414 34.3485C79.4139 34.4258 79.3706 34.5018 79.2847 34.5322L70.5526 37.5967C70.4332 37.6386 70.3029 37.6376 70.1837 37.5939L61.4696 34.3992C61.3838 34.3688 61.3412 34.2916 61.3414 34.2143L61.3449 32.9936L63.8653 33.0125Z" fill="#CADDFF"/>
<path d="M61.5333 33.1848L61.5304 34.2156L70.2483 37.4157C70.326 37.4441 70.4117 37.4447 70.4893 37.4176L79.2215 34.3524L79.2266 33.3165L76.8953 33.2988C76.8699 33.2988 76.8447 33.2938 76.8213 33.2836L70.4976 30.5382C70.4303 30.5141 70.3446 30.5129 70.2669 30.5407L63.9377 33.1874C63.9141 33.1975 63.8893 33.2013 63.8634 33.2026L61.5333 33.1848ZM70.3716 37.8174C70.2857 37.8174 70.1999 37.8023 70.1181 37.7724L61.4041 34.5778C61.25 34.5221 61.1508 34.379 61.1513 34.2144L61.1548 32.9924C61.155 32.9417 61.1752 32.8936 61.2111 32.8581C61.247 32.8227 61.2965 32.7999 61.3459 32.8037L63.8275 32.8214L70.1311 30.1861C70.3017 30.1266 70.478 30.1266 70.638 30.1861L76.9367 32.9189L79.4184 32.9379C79.5228 32.9379 79.6068 33.024 79.6067 33.1279L79.6032 34.3499C79.6026 34.5145 79.502 34.6563 79.3469 34.7108L70.6146 37.776C70.5363 37.8037 70.4539 37.8174 70.3716 37.8174Z" fill="black"/>
<path d="M61.4747 32.81L70.2068 29.7454C70.3262 29.7036 70.4565 29.7049 70.5757 29.7479L79.2896 32.9429C79.4612 33.005 79.4605 33.2506 79.2886 33.3102L70.5563 36.3751C70.437 36.417 70.3068 36.4161 70.1876 36.3724L61.4735 33.1785C61.302 33.1151 61.3027 32.8707 61.4747 32.81Z" fill="#5479F7"/>
<path d="M61.5367 32.9898C61.5348 32.9898 61.534 32.9911 61.534 32.9911L70.2522 36.194C70.3299 36.2225 70.4157 36.2233 70.4932 36.1959L79.2255 33.1316L70.51 29.9265C70.4324 29.8986 70.3467 29.8974 70.269 29.9252L61.5367 32.9898ZM70.3755 36.5957C70.2897 36.5957 70.2037 36.5808 70.1219 36.5508L61.408 33.357C61.2533 33.3 61.1542 33.1569 61.1552 32.9911C61.1564 32.8264 61.2569 32.6859 61.4115 32.6314L70.1436 29.5669C70.304 29.5099 70.4803 29.5111 70.6402 29.5694L79.3543 32.7644C79.5089 32.8214 79.6081 32.9645 79.6071 33.1291C79.6058 33.2937 79.5052 33.4355 79.3508 33.49L70.6187 36.5544C70.5401 36.582 70.4578 36.5957 70.3755 36.5957Z" fill="black"/>
<path d="M65.2668 38.0236C65.4397 38.0268 65.5807 38.1638 65.5896 38.3373L65.839 43.2276L64.5125 43.2038L64.9335 38.3256C64.9484 38.1524 65.0941 38.0205 65.2668 38.0236Z" fill="#99B9FF"/>
<path d="M64.7194 43.0174L65.6399 43.0341L65.4008 38.3471C65.397 38.2734 65.3369 38.2149 65.2641 38.2137C65.2639 38.2138 65.2623 38.2135 65.2614 38.2135C65.1896 38.2135 65.129 38.2695 65.1228 38.3419L64.7194 43.0174ZM65.8396 43.4176C65.8384 43.4176 65.8373 43.4176 65.8362 43.4176L64.5096 43.3938C64.4571 43.3928 64.4074 43.3701 64.3723 43.3308C64.337 43.2918 64.3196 43.2399 64.3242 43.1874L64.7451 38.3091C64.7682 38.0408 64.9941 37.8336 65.2614 37.8336C65.2646 37.8336 65.2676 37.8337 65.2708 37.8337C65.5421 37.8386 65.7655 38.0555 65.7794 38.3276L66.0289 43.2179C66.0315 43.2705 66.0123 43.3218 65.9758 43.3597C65.9402 43.3968 65.8909 43.4176 65.8396 43.4176Z" fill="black"/>
<path d="M65.3289 38.1738C65.327 38.1738 65.3251 38.1738 65.3232 38.1736C65.2186 38.1706 65.1362 38.0832 65.1392 37.9784L65.2352 34.6448C65.2374 34.5676 65.2867 34.4979 65.3596 34.4714L70.3165 32.6554C70.4144 32.62 70.5236 32.6706 70.5596 32.7694C70.5957 32.8682 70.5451 32.9771 70.4467 33.0125L65.6105 34.7841L65.5182 37.9894C65.5153 38.0923 65.431 38.1738 65.3289 38.1738Z" fill="black"/>
</svg>
