<svg width="105" height="105" viewBox="0 0 105 105" fill="none" xmlns="http://www.w3.org/2000/svg">
<path d="M104.61 62.354C104.615 58.9567 104.144 27.9617 78.6529 11.0248C65.0841 2.00992 42.8961 -4.03887 30.8073 4.79747C27.2377 7.40771 28.0219 8.77553 19.5722 22.7247C7.97292 41.8732 4.98643 41.7837 2.33263 49.7104C-1.12314 60.0295 -1.11555 75.2765 7.36828 86.6975C16.9956 99.6567 32.9931 101.573 49.0158 103.493C64.7401 105.376 80.6718 107.285 92.4064 97.2652C104.571 86.8779 104.598 70.1829 104.61 62.354Z" fill="#CADDFF"/>
<path d="M36.1338 4.38079L102.416 4.20474C103.898 4.20474 105.062 5.25086 104.93 6.4667L101.05 68.5767C100.933 69.6491 99.8416 70.4711 98.535 70.4711L95.6269 70.4707L95.0235 70.1579L11.7677 70.4598C10.2852 70.4598 9.10626 69.3044 9.23781 68.0885L13.1211 6.27547C13.2362 5.20274 14.2861 4.26427 15.594 4.26427L36.1338 4.38079Z" fill="#99B9FF"/>
<path d="M33.3536 4.42258H99.4596C100.94 4.42258 102.1 5.4687 101.969 6.68454L98.1201 68.557C98.005 69.6289 96.9159 70.4506 95.6117 70.4506H9.05821C7.57952 70.4506 6.41834 69.4041 6.54989 68.1887L10.3978 6.31599C10.5141 5.24454 11.602 4.42258 12.9074 4.42258H33.3536Z" fill="white"/>
<path d="M95.6172 70.4568C95.5123 70.4568 95.4275 70.3718 95.4275 70.2668C95.4275 70.1619 95.5123 70.0768 95.6172 70.0768C96.7936 70.0768 97.7613 69.3344 97.8688 68.3497L101.715 6.6833C101.765 6.22483 101.612 5.7765 101.284 5.41048C100.846 4.92287 100.141 4.63031 99.3968 4.63031H12.8433C11.6467 4.63031 10.6272 5.38514 10.5234 6.34895L8.24278 44.7506C8.23646 44.8553 8.14666 44.9346 8.04294 44.9289C7.93795 44.9227 7.85827 44.8328 7.86459 44.7281L10.1452 6.31728C10.273 5.13438 11.4329 4.25036 12.8433 4.25036H99.3968C100.26 4.25036 101.05 4.58092 101.566 5.15718C101.967 5.60425 102.154 6.15771 102.094 6.71623L98.2458 68.382C98.118 69.5686 96.9884 70.4568 95.6172 70.4568Z" fill="black"/>
<path d="M75.0214 70.4476H57.7919C57.6869 70.4476 57.6022 70.3625 57.6022 70.2577C57.6022 70.1527 57.6869 70.0677 57.7919 70.0677H75.0214C75.1264 70.0677 75.2111 70.1527 75.2111 70.2577C75.2111 70.3625 75.1264 70.4476 75.0214 70.4476Z" fill="black"/>
<path d="M94.0395 11.0071H76.1763C75.4173 11.0071 74.8152 10.3675 74.8582 9.60888C74.8975 8.9085 75.4768 8.36138 76.1763 8.36138H94.0395C94.7985 8.36138 95.4018 9.00095 95.3588 9.75958C95.3183 10.4587 94.7403 11.0071 94.0395 11.0071Z" fill="#CADDFF"/>
<path d="M77.9129 26.5685H70.1918C69.4329 26.5685 68.8295 25.9302 68.8725 25.1716C68.913 24.4712 69.4911 23.9241 70.1918 23.9241H77.9129C78.6719 23.9241 79.2752 24.5624 79.2322 25.321C79.1918 26.0214 78.6137 26.5685 77.9129 26.5685Z" fill="#CADDFF"/>
<path d="M93.6656 16.3732H70.224C69.4651 16.3732 68.8617 15.7349 68.9047 14.9763C68.9439 14.2759 69.5232 13.7288 70.224 13.7288H93.6656C94.4245 13.7288 95.0266 14.3684 94.9836 15.127C94.9444 15.8261 94.3651 16.3732 93.6656 16.3732Z" fill="#CADDFF"/>
<path d="M93.3154 21.7508H69.8739C69.1149 21.7508 68.5116 21.1112 68.5546 20.3526C68.595 19.6535 69.1731 19.1063 69.8739 19.1063H93.3154C94.0744 19.1063 94.6765 19.7447 94.6335 20.5033C94.5943 21.2037 94.0149 21.7508 93.3154 21.7508Z" fill="#CADDFF"/>
<path d="M32.2508 39.3436H18.2596C17.665 39.3436 17.1932 38.8434 17.2274 38.2494C17.259 37.701 17.7118 37.2716 18.2596 37.2716H32.2508C32.8454 37.2716 33.3172 37.7719 33.283 38.3672C33.2527 38.9143 32.7986 39.3436 32.2508 39.3436Z" fill="#CADDFF"/>
<path d="M31.9576 43.5471H13.5985C13.004 43.5471 12.5322 43.0469 12.5651 42.4527C12.5967 41.9045 13.0495 41.4759 13.5985 41.4759H31.9576C32.5521 41.4759 33.0239 41.9761 32.991 42.5703C32.9594 43.1185 32.5066 43.5471 31.9576 43.5471Z" fill="#CADDFF"/>
<path d="M31.6826 47.7581H13.3235C12.729 47.7581 12.2572 47.2579 12.29 46.6637C12.3217 46.1155 12.7745 45.6868 13.3235 45.6868H31.6826C32.2771 45.6868 32.7489 46.1872 32.716 46.7811C32.6844 47.3295 32.2315 47.7581 31.6826 47.7581Z" fill="#CADDFF"/>
<path d="M31.6826 35.0718H13.3235C12.729 35.0718 12.2572 34.5702 12.29 33.9763C12.3217 33.4279 12.7745 32.9998 13.3235 32.9998H31.6826C32.2771 32.9998 32.7489 33.5001 32.716 34.094C32.6844 34.6424 32.2315 35.0718 31.6826 35.0718Z" fill="#CADDFF"/>
<path d="M78.629 57.6312H65.5485C64.9932 57.6312 64.5517 57.1635 64.5834 56.608C64.6124 56.0953 65.0362 55.6947 65.5485 55.6947H78.629C79.1844 55.6947 79.6258 56.1625 79.5942 56.7178C79.5651 57.2305 79.1413 57.6312 78.629 57.6312Z" fill="#CADDFF"/>
<path d="M78.3546 61.5613H61.1897C60.6344 61.5613 60.1929 61.0934 60.2245 60.5381C60.2536 60.0255 60.6774 59.6248 61.1897 59.6248H78.3546C78.9099 59.6248 79.3514 60.0925 79.3198 60.6479C79.2907 61.1606 78.8682 61.5613 78.3546 61.5613Z" fill="#CADDFF"/>
<path d="M78.0981 65.4982H60.9331C60.3778 65.4982 59.9364 65.0303 59.968 64.475C59.9971 63.9624 60.4208 63.5617 60.9331 63.5617H78.0981C78.6547 63.5617 79.0961 64.0293 79.0645 64.5848V64.5849C79.0354 65.0975 78.6117 65.4982 78.0981 65.4982Z" fill="#CADDFF"/>
<path d="M78.0981 53.6368H60.9331C60.3778 53.6368 59.9364 53.1691 59.968 52.6138C59.9971 52.1011 60.4208 51.7004 60.9331 51.7004H78.0981C78.6547 51.7004 79.0961 52.1682 79.0645 52.7236C79.0354 53.2361 78.6117 53.6368 78.0981 53.6368Z" fill="#CADDFF"/>
<path d="M61.0586 69.7421H40.5694C39.9762 69.7421 39.4967 70.223 39.4967 70.8161C39.4967 71.4092 39.9762 71.8901 40.5694 71.8901H58.3074C58.9259 71.8901 59.4155 72.4109 59.3788 73.0282L57.5839 103.56L59.8126 103.476L62.1287 70.8923C62.173 70.2707 61.6809 69.7421 61.0586 69.7421Z" fill="#99B9FF"/>
<path d="M42.2455 98.7643L42.0229 101.285L44.4174 101.297L44.8412 98.7818L42.2455 98.7643Z" fill="white"/>
<path d="M42.2307 101.096L44.2584 101.106L44.6176 98.9703L42.4192 98.9554L42.2307 101.096ZM44.5784 101.488L41.8171 101.474L42.0714 98.5731L45.0654 98.5934L44.5784 101.488Z" fill="black"/>
<path d="M49.0333 98.7644L48.7967 101.713L51.171 101.724L51.7895 98.7819L49.0333 98.7644Z" fill="white"/>
<path d="M49.002 101.524L51.0183 101.533L51.5559 98.9703L49.2095 98.9553L49.002 101.524ZM51.3257 101.915L48.5909 101.901L48.8591 98.5731L52.0239 98.5933L51.3257 101.915Z" fill="black"/>
<path d="M51.4071 100.982H48.876C48.6964 100.982 48.5345 101.075 48.4662 101.219C48.2423 101.693 47.7857 102.801 47.8464 103.853C47.8628 104.139 48.1386 104.364 48.4687 104.364H55.8938C56.2353 104.364 56.4959 104.093 56.4263 103.802C56.3454 103.455 56.0621 102.996 55.2487 102.585C53.9307 101.919 52.2736 101.253 51.7512 101.047C51.6424 101.004 51.526 100.982 51.4071 100.982Z" fill="#5479F7"/>
<path d="M48.877 101.172C48.7707 101.172 48.6759 101.224 48.6392 101.301C48.4381 101.725 47.9776 102.822 48.0371 103.841C48.0472 104.025 48.242 104.174 48.4697 104.174H55.8948C56.0175 104.174 56.1301 104.124 56.1958 104.041C56.2287 104 56.2629 103.932 56.2426 103.846C56.1478 103.441 55.7746 103.064 55.1637 102.755C53.8456 102.089 52.1658 101.414 51.6826 101.223C51.5953 101.189 51.503 101.172 51.4081 101.172H48.877ZM55.8948 104.554H48.4697C48.0371 104.554 47.6804 104.25 47.6576 103.863C47.5956 102.796 48.0308 101.698 48.2964 101.138C48.3951 100.928 48.624 100.792 48.877 100.792H51.4081C51.551 100.792 51.6902 100.818 51.8217 100.87C52.3087 101.062 54.0025 101.742 55.3344 102.416C56.2363 102.871 56.5272 103.398 56.612 103.759C56.655 103.939 56.612 104.127 56.4931 104.277C56.3565 104.45 56.1326 104.554 55.8948 104.554Z" fill="black"/>
<path d="M44.4635 100.975H41.9337C41.7541 100.975 41.5922 101.069 41.5239 101.213C41.3 101.687 40.8421 102.795 40.904 103.846C40.9205 104.133 41.195 104.358 41.5264 104.358H48.9515C49.293 104.358 49.5523 104.087 49.484 103.796C49.4018 103.449 49.1197 102.99 48.3051 102.579C46.9871 101.913 45.3313 101.246 44.8089 101.04C44.7001 100.997 44.5824 100.975 44.4635 100.975Z" fill="#5479F7"/>
<path d="M41.9335 101.165C41.8272 101.165 41.7311 101.217 41.6944 101.294C41.4946 101.719 41.0329 102.816 41.0923 103.835C41.1037 104.019 41.2985 104.168 41.5262 104.168H48.9513C49.074 104.168 49.1853 104.117 49.2523 104.035C49.2852 103.993 49.3194 103.926 49.2991 103.84C49.2043 103.435 48.8311 103.057 48.2202 102.748C46.9008 102.082 45.221 101.408 44.7391 101.217C44.6518 101.183 44.5595 101.165 44.4633 101.165H41.9335ZM48.9513 104.548H41.5262C41.0936 104.548 40.7369 104.244 40.7141 103.856C40.6521 102.79 41.0873 101.691 41.3516 101.132C41.4516 100.921 41.6792 100.785 41.9335 100.785H44.4633C44.6075 100.785 44.7467 100.812 44.8782 100.863C45.3652 101.056 47.0577 101.735 48.3909 102.409C49.2928 102.865 49.5837 103.392 49.6685 103.753C49.7115 103.932 49.6672 104.121 49.5496 104.271C49.4117 104.444 49.1878 104.548 48.9513 104.548Z" fill="black"/>
<path d="M48.1266 83.367C48.8502 86.8346 45.9839 96.32 45.383 98.6317C45.3046 98.9347 45.0402 99.1449 44.7379 99.1449H42.0676C41.6958 99.1449 41.396 98.8307 41.3998 98.4445C41.4251 95.7019 41.9007 85.7022 40.2677 82.8233C39.3228 81.1567 36.7512 80.4051 35.5938 79.612C32.816 77.7083 33.8621 73.493 33.8621 73.493L44.495 79.139C46.5278 80.1566 47.8155 81.8729 48.1266 83.367Z" fill="black"/>
<path d="M43.3074 74.5835C43.3074 74.5835 52.4679 74.6694 55.3558 78.2743C57.9526 81.5143 53.5735 95.7779 52.7677 98.6329C52.6842 98.9288 52.4237 99.1313 52.1264 99.1313H48.6858C48.6125 99.1313 48.5543 99.0702 48.5543 98.9949L49.0843 83.8815C49.0843 82.9291 48.6277 82.0343 47.8573 81.5181C46.7796 80.7949 44.9581 79.8289 42.2626 79.8498C33.7003 79.9165 35.2233 74.4599 35.2233 74.4599L43.3074 74.5835Z" fill="black"/>
<path d="M42.6728 65.6327L50.4647 65.6119C50.8101 65.6113 51.1098 65.3753 51.1921 65.0397L53.6258 55.0493C53.7434 54.5748 53.3842 54.1166 52.8959 54.1173L45.104 54.1381C44.7587 54.1387 44.4589 54.3748 44.3754 54.7103L41.943 64.7007C41.8253 65.1752 42.1846 65.6334 42.6728 65.6327Z" fill="#99B9FF"/>
<path d="M51.2544 58.1815C51.5466 57.9728 51.9527 58.0427 52.1576 58.3372C52.3271 58.6117 52.6218 58.6434 52.7344 58.1719L53.3454 55.7013C53.4225 55.3712 54.9581 56.3023 54.0626 59.343C53.9917 59.5853 53.2163 61.3762 53.186 61.4159C52.8508 61.8466 52.3764 61.7568 51.954 61.4765C51.9362 61.4653 52.0779 60.9165 52.1816 60.5235C52.2487 60.2717 52.212 60.0041 52.0804 59.7793L51.1571 58.2509L51.2544 58.1815Z" fill="white"/>
<path d="M53.5309 55.7443V55.7472C53.5309 55.7463 53.5309 55.7453 53.5309 55.7443ZM52.1623 61.3816C52.5291 61.5917 52.82 61.5681 53.0275 61.3105C53.1173 61.1314 53.8181 59.5053 53.8813 59.2893C54.4404 57.3911 53.9964 56.4517 53.7801 56.136C53.6701 55.9764 53.5689 55.8949 53.5031 55.857L52.9187 58.2176C52.8251 58.6124 52.6164 58.7029 52.5 58.7217C52.3141 58.7513 52.1256 58.6451 51.9978 58.4367C51.9333 58.3455 51.8283 58.2787 51.7082 58.2579C51.6045 58.2402 51.5032 58.2574 51.4134 58.3061L52.2432 59.681C52.4039 59.9538 52.4469 60.2695 52.3659 60.5722C52.242 61.0432 52.1863 61.2714 52.1623 61.3816ZM52.6176 61.9039C52.3811 61.9039 52.1205 61.8146 51.8498 61.635C51.717 61.5463 51.717 61.5463 51.9991 60.475C52.0535 60.2707 52.0244 60.0578 51.9181 59.8753L50.996 58.3491C50.9454 58.2642 50.9669 58.154 51.0479 58.0963L51.1453 58.0269C51.3274 57.8963 51.5501 57.8454 51.7714 57.8834C51.9928 57.9215 52.1863 58.0441 52.3141 58.2284C52.3748 58.325 52.4241 58.3511 52.4393 58.3464C52.4519 58.3445 52.5101 58.2996 52.5506 58.1279L53.1628 55.6556C53.1843 55.5611 53.2552 55.487 53.3513 55.4598C53.5119 55.4145 53.7169 55.5029 53.9129 55.7024C54.1697 55.9621 54.9527 56.9961 54.2456 59.3966C54.1963 59.5641 53.412 61.4341 53.3361 61.5325C53.1439 61.7796 52.8972 61.9039 52.6176 61.9039Z" fill="black"/>
<path d="M50.0112 69.9035C49.3674 70.4078 48.4997 70.5207 47.7508 70.1941C46.9856 69.8597 46.1393 69.4468 45.8838 69.1835C43.4387 66.6641 37.9262 61.0223 36.6575 57.5304C36.6385 57.4772 36.6777 57.4209 36.7334 57.4178L40.413 57.2097C40.413 57.2097 42.8493 56.8722 45.0945 58.8066C46.6099 60.1126 47.852 63.2347 48.382 64.7237C48.4896 65.0271 48.8817 65.1019 49.0955 64.8608C50.1668 63.6513 51.7606 60.4707 51.7606 60.4707H54.2045C54.2045 60.4707 53.109 67.2203 50.0112 69.9035Z" fill="#5479F7"/>
<path d="M44.2477 67.126C44.2477 67.126 44.4134 68.1127 43.9631 69.2932C43.4027 70.7609 43.6696 72.4231 44.7423 73.5749C45.1926 74.0581 45.7011 74.4918 46.2399 74.7522C46.2399 74.7522 45.8971 76.3743 43.4002 76.4854C42.3857 76.5305 39.7054 76.6274 37.7106 76.514C34.9885 76.3592 32.9785 75.8573 32.9785 75.8573L33.1898 63.2635C33.1898 63.2635 33.0038 57.8424 36.7265 57.4201L44.2477 67.126Z" fill="#5479F7"/>
<path d="M44.4416 68.1486C44.391 68.1486 44.3404 68.1282 44.3024 68.088C43.2804 66.9867 42.4885 65.7172 41.9484 64.3149C41.9117 64.217 41.9598 64.1071 42.0572 64.0694C42.1558 64.0318 42.2659 64.0803 42.3026 64.1783C42.825 65.5352 43.5915 66.7637 44.5807 67.8293C44.6515 67.9062 44.6477 68.0265 44.5706 68.098C44.5339 68.1319 44.4884 68.1486 44.4416 68.1486Z" fill="#99B9FF"/>
<path d="M42.2256 50.5847C42.2256 50.5847 42.38 51.9652 43.0719 52.7322C43.1237 52.791 43.1364 52.8757 43.0959 52.9434L42.8113 53.42C42.786 53.4614 42.7658 53.5053 42.7506 53.5509L42.2775 54.9432C42.2345 55.0705 42.1194 55.1612 41.9853 55.1723C41.6893 55.1969 40.9266 55.0786 40.8785 55.2796C40.5876 56.4838 40.9215 56.8259 40.9417 57.8734C40.9569 58.6325 40.2005 58.792 40.2005 58.792C38.9482 59.0843 37.9211 58.7662 37.9211 58.7662C37.424 58.5985 37.1659 58.0406 37.3038 57.5955C37.6605 56.4423 37.9679 56.0778 37.9059 54.1794L36.956 52.1866C36.9737 51.2316 37.7706 50.4735 38.7307 50.4975L42.2256 50.5847Z" fill="white"/>
<path d="M37.1475 52.1465L38.0949 54.1334L38.0962 54.1731C38.1468 55.7283 37.9545 56.28 37.6889 57.0438C37.6231 57.2312 37.5561 57.4249 37.4852 57.6518C37.384 57.9802 37.5624 58.4446 37.9823 58.586C37.9874 58.5876 38.974 58.8833 40.158 58.6069C40.1858 58.6009 40.7652 58.4657 40.7525 57.8772C40.7462 57.5148 40.6994 57.2412 40.6551 56.9765C40.5742 56.4971 40.4983 56.0443 40.6943 55.2349C40.7652 54.9425 41.1877 54.9602 41.6354 54.9787C41.7683 54.9841 41.8935 54.9894 41.9694 54.983C42.0288 54.9782 42.0794 54.9385 42.0984 54.8821L42.5715 53.4897C42.5905 53.4317 42.617 53.3753 42.6486 53.3225L42.9282 52.8557C42.3438 52.2044 42.1262 51.1715 42.0617 50.7706L38.7274 50.6874C38.3112 50.6775 37.9166 50.8294 37.6168 51.1164C37.3322 51.3901 37.1665 51.7544 37.1475 52.1465ZM39.1081 59.1064C38.3896 59.1064 37.8951 58.9569 37.8647 58.9476C37.2854 58.7517 36.9477 58.1074 37.1235 57.5393C37.1956 57.3061 37.2639 57.1092 37.3309 56.9187C37.5801 56.2002 37.7623 55.6792 37.718 54.2251L36.7668 52.2279V52.183C36.7769 51.6725 36.9856 51.1962 37.3549 50.8419C37.7281 50.4844 38.2176 50.2932 38.7363 50.3076L42.3969 50.3989L42.4146 50.5634C42.4159 50.5766 42.5715 51.8934 43.2128 52.6049C43.3228 52.7276 43.3418 52.9029 43.2596 53.0412L42.9737 53.5177C42.956 53.5474 42.9421 53.5791 42.9307 53.6119L42.4576 55.0044C42.3893 55.204 42.211 55.3443 42.001 55.3617C41.9011 55.37 41.7645 55.3643 41.619 55.3583C41.4545 55.3514 41.1598 55.3391 41.0523 55.3703C40.8891 56.0748 40.9536 56.464 41.0295 56.9133C41.0738 57.1786 41.1244 57.4793 41.132 57.8696C41.1472 58.5944 40.5552 58.9115 40.2402 58.9779C39.8304 59.0735 39.4446 59.1064 39.1081 59.1064Z" fill="black"/>
<path d="M42.5497 50.0961C42.6914 50.3134 42.6066 50.6065 42.3688 50.7151L42.2258 50.7807L39.481 52.135C39.4114 52.1693 39.3266 52.1648 39.2647 52.1193C39.1508 52.0371 38.9459 51.9354 38.7423 52.0661C38.4564 52.2484 38.3982 53.2218 39.1318 53.4801C39.228 53.5142 39.2824 53.6167 39.2432 53.7109C39.2002 53.8129 39.1382 53.9487 39.0522 54.0967C38.4045 55.2106 36.8057 55.2768 36.0341 54.2437C35.4661 53.4826 34.945 52.2309 35.5863 50.5193C36.5906 47.8351 40.694 47.2575 42.5497 50.0961Z" fill="black"/>
<path d="M35.863 49.4736C35.863 49.4736 34.6651 48.0503 32.9119 48.6021C31.1588 49.154 31.0702 52.1242 30.8665 53.976C30.1519 60.4973 28.5606 62.8711 28.0471 63.4601C27.4778 64.1136 31.9582 63.6703 33.4672 63.1551C37.8186 61.6703 35.5278 57.4763 35.3229 56.721C35.118 55.9657 33.4963 51.7393 35.5126 51.2455L36.5359 50.374L35.863 49.4736Z" fill="black"/>
<path d="M35.3124 51.5094L35.3339 51.5173C35.5249 51.587 35.7362 51.4897 35.807 51.2999L36.3408 49.854C36.4104 49.6642 36.313 49.4538 36.1219 49.3839L36.1005 49.3761C35.9095 49.3063 35.6982 49.4037 35.6274 49.5935L35.0936 51.0393C35.0227 51.2292 35.1214 51.4396 35.3124 51.5094Z" fill="#5479F7"/>
<path d="M38.0386 104.215H40.6203V83.6962H38.0386V104.215Z" fill="#99B9FF"/>
<path d="M32.6735 101.846H45.7022C47.1999 101.846 48.4142 103.062 48.4142 104.562H30.2436V104.281C30.2436 102.936 31.3314 101.846 32.6735 101.846Z" fill="#99B9FF"/>
<path d="M38.1467 97.5458C38.0415 97.5458 37.9567 97.4607 37.9567 97.3559V87.3557C37.9567 87.2508 38.0415 87.1658 38.1467 87.1658C38.2518 87.1658 38.3366 87.2508 38.3366 87.3557V97.3559C38.3366 97.4607 38.2518 97.5458 38.1467 97.5458Z" fill="black"/>
<path d="M31.6219 64.5412H32.9209C36.383 64.5412 39.3784 66.9778 40.1183 70.3963L41.6299 77.3784C41.9841 79.0122 43.4147 80.1767 45.0693 80.1767H47.799C49.2258 80.1767 50.3832 81.3458 50.3832 82.788C50.3832 84.23 49.2258 85.3991 47.799 85.3991H43.3654L43.3679 85.4111H35.5684C32.8387 85.4111 30.4771 83.4901 29.894 80.7948L27.497 69.7217C26.9202 67.0597 28.9263 64.5412 31.6219 64.5412Z" fill="#99B9FF"/>
<path d="M43.3679 85.6011H35.5684C32.7704 85.6011 30.305 83.5967 29.708 80.8351L27.311 69.762C27.2895 69.6594 27.354 69.5582 27.4564 69.536C27.5589 69.5135 27.6601 69.579 27.6816 69.6814L30.0786 80.7546C30.639 83.3427 32.9475 85.2212 35.5684 85.2212H43.3679C43.4729 85.2212 43.5576 85.3063 43.5576 85.4112C43.5576 85.5162 43.4729 85.6011 43.3679 85.6011Z" fill="black"/>
<path d="M43.3679 85.6011H35.5684C32.7704 85.6011 30.305 83.5967 29.708 80.8351L27.311 69.762C27.2895 69.6594 27.354 69.5582 27.4564 69.536C27.5589 69.5135 27.6601 69.579 27.6816 69.6814L30.0786 80.7546C30.639 83.3427 32.9475 85.2212 35.5684 85.2212H43.3679C43.4729 85.2212 43.5576 85.3063 43.5576 85.4112C43.5576 85.5162 43.4729 85.6011 43.3679 85.6011Z" fill="black"/>
<path d="M25.1112 12.5712C25.1112 19.5141 19.4899 25.1425 12.5556 25.1425C5.62131 25.1425 0 19.5141 0 12.5712C0 5.62829 5.62131 -1.33514e-05 12.5556 -1.33514e-05C19.4899 -1.33514e-05 25.1112 5.62829 25.1112 12.5712Z" fill="#5479F7"/>
<path d="M5.56729 10.3231V16.5518C5.56729 18.4262 8.69038 19.946 12.5433 19.946C16.395 19.946 19.5181 18.4262 19.5181 16.5518V10.3231H5.56729Z" fill="white"/>
<path d="M5.75657 10.5131V16.5518C5.75657 18.3186 8.79998 19.756 12.5429 19.756C16.2845 19.756 19.3279 18.3186 19.3279 16.5518V10.5131H5.75657ZM12.5429 20.136C8.52422 20.136 5.3771 18.5617 5.3771 16.5518V10.3232C5.3771 10.2181 5.46185 10.1332 5.56684 10.1332H19.5177C19.6226 10.1332 19.7074 10.2181 19.7074 10.3232V16.5518C19.7074 18.5617 16.5603 20.136 12.5429 20.136Z" fill="black"/>
<path d="M19.9078 8.93386L12.7508 5.90186C12.6167 5.85373 12.4687 5.85373 12.3347 5.90186L5.17775 8.93386H2.32913V9.62536C2.32913 9.71148 2.37846 9.7976 2.4746 9.83179L12.3347 13.3489C12.4687 13.397 12.6167 13.397 12.7508 13.3489L22.6109 9.83179C22.707 9.7976 22.7564 9.71148 22.7564 9.62536V8.93386H19.9078Z" fill="black"/>
<path d="M2.51842 9.12383V9.62536C2.51842 9.64562 2.53232 9.65069 2.53865 9.65322L12.3975 13.1703C12.4911 13.2032 12.5935 13.2032 12.6871 13.1703L22.5459 9.65322C22.5523 9.65069 22.5662 9.64562 22.5662 9.62536V9.12383H19.9073C19.882 9.12383 19.8567 9.11876 19.8327 9.10863L12.677 6.07664C12.5935 6.04751 12.4911 6.0475 12.3975 6.08043L5.25191 9.10863C5.22787 9.11876 5.20259 9.12383 5.1773 9.12383H2.51842ZM12.5429 13.5756C12.4506 13.5756 12.3582 13.5591 12.2697 13.5287L2.4109 10.0104C2.24646 9.95212 2.13894 9.8014 2.13894 9.62536V8.93386C2.13894 8.82874 2.22369 8.74388 2.32868 8.74388H5.13935L12.2596 5.72709C12.4455 5.65996 12.6391 5.65997 12.8149 5.72329L19.9453 8.74388H22.7559C22.8609 8.74388 22.9456 8.82874 22.9456 8.93386V9.62536C22.9456 9.8014 22.8381 9.95212 22.6737 10.0104L12.8149 13.5287C12.7263 13.5591 12.634 13.5756 12.5429 13.5756Z" fill="black"/>
<path d="M22.6106 8.72738L12.7505 5.20906C12.6164 5.1622 12.4684 5.1622 12.3343 5.20906L2.47428 8.72738C2.28075 8.79577 2.28075 9.07061 2.47428 9.14027L12.3343 12.6573C12.4684 12.7055 12.6164 12.7055 12.7505 12.6573L22.6106 9.14027C22.8041 9.07061 22.8041 8.79577 22.6106 8.72738Z" fill="white"/>
<path d="M12.5429 5.36357C12.4936 5.36357 12.4443 5.37243 12.3975 5.3889L2.53865 8.90596C2.53232 8.90849 2.51842 8.91229 2.51842 8.93382C2.51842 8.95409 2.53232 8.95914 2.53865 8.96167L12.3975 12.4775C12.4911 12.5117 12.5935 12.5117 12.6871 12.4775L22.5459 8.96167C22.5523 8.95914 22.5662 8.95409 22.5662 8.93382C22.5662 8.91229 22.5523 8.90722 22.5459 8.90596L12.6871 5.3889C12.6403 5.37243 12.591 5.36357 12.5429 5.36357ZM12.5429 12.8828C12.4506 12.8828 12.3582 12.8676 12.2697 12.8359L2.4109 9.31883C2.24519 9.26057 2.13894 9.1086 2.13894 8.93382C2.13894 8.75778 2.24646 8.60707 2.4109 8.54754L12.2697 5.03048C12.4455 4.96842 12.6391 4.96842 12.8149 5.03048L22.6737 8.54754C22.8381 8.60707 22.9456 8.75778 22.9456 8.93382C22.9456 9.1086 22.8381 9.26057 22.6737 9.31883L12.8149 12.8359C12.7263 12.8676 12.634 12.8828 12.5429 12.8828Z" fill="black"/>
<path d="M18.1383 13.9897C17.9435 13.9897 17.7816 14.1404 17.7677 14.3355L17.3895 19.8295H18.8871L18.509 14.3355C18.495 14.1404 18.3331 13.9897 18.1383 13.9897Z" fill="white"/>
<path d="M17.5929 19.6395H18.6845L18.3202 14.3481C18.3139 14.2531 18.2342 14.1797 18.1393 14.1797C18.0445 14.1797 17.9648 14.2531 17.9584 14.3481L17.5929 19.6395ZM18.8881 20.0195H17.3905C17.3374 20.0195 17.2868 19.9979 17.2514 19.9599C17.2159 19.9207 17.197 19.87 17.2008 19.8168L17.5789 14.3228C17.5992 14.0289 17.8459 13.7997 18.1393 13.7997C18.4328 13.7997 18.6782 14.0289 18.6984 14.3228L19.0779 19.8168C19.0817 19.87 19.0627 19.9207 19.0273 19.9599C18.9906 19.9979 18.9413 20.0195 18.8881 20.0195Z" fill="black"/>
<path d="M18.1391 14.11C18.0341 14.11 17.9494 14.0251 17.9494 13.92V11.1477L12.4761 9.11114C12.3787 9.07441 12.3281 8.96548 12.3648 8.86669C12.4014 8.76917 12.5102 8.71852 12.6089 8.75525L18.2049 10.8374C18.2795 10.8652 18.3289 10.9362 18.3289 11.0159V13.92C18.3289 14.0251 18.2441 14.11 18.1391 14.11Z" fill="black"/>
<path d="M7.35174 95.7145L6.70663 100.253L5.05465 100.259L4.97623 95.7955L7.35174 95.7145Z" fill="white"/>
<path d="M5.17029 95.9791L5.24114 100.068L6.54146 100.063L7.1322 95.9121L5.17029 95.9791ZM5.05518 100.449C4.95146 100.449 4.86671 100.366 4.86544 100.262L4.78703 95.799C4.78576 95.6953 4.86672 95.6093 4.97044 95.6058L7.34595 95.5247C7.39908 95.523 7.45601 95.5457 7.49396 95.5875C7.53064 95.6293 7.54834 95.6856 7.54075 95.7412L6.89438 100.279C6.88173 100.373 6.80203 100.442 6.70716 100.443L5.05518 100.449Z" fill="black"/>
<path d="M6.76253 104.591C6.11362 104.661 5.14849 104.688 3.85953 104.575C3.39784 104.534 3.07277 104.106 3.1474 103.649C3.34726 102.417 3.90635 100.244 4.78673 99.2475L5.22187 99.8683L5.48118 99.2267C5.52166 99.1575 6.61707 99.1115 6.63984 99.2418L6.70687 99.8683L7.32796 99.1711L7.2938 101.461C7.29 101.714 7.31403 101.966 7.36463 102.214L7.52781 103.005C7.62647 103.482 7.50504 103.987 7.17237 104.341C7.04208 104.48 6.89788 104.577 6.76253 104.591Z" fill="white"/>
<path d="M4.77633 99.5628C3.99841 100.612 3.50762 102.609 3.33432 103.679C3.30649 103.848 3.35077 104.021 3.45449 104.155C3.55821 104.29 3.70748 104.371 3.87572 104.386C5.24816 104.506 6.19178 104.462 6.74202 104.402C6.82172 104.393 6.92796 104.324 7.03422 104.211C7.31503 103.911 7.43141 103.474 7.3416 103.043L7.17842 102.252C7.1253 101.992 7.09999 101.724 7.10379 101.458L7.13035 99.6778L6.84702 99.9949C6.79769 100.051 6.71925 100.072 6.64842 100.049C6.57632 100.026 6.52571 99.9633 6.51686 99.8884L6.46248 99.3664C6.27274 99.3377 5.80851 99.3481 5.62383 99.3786L5.3974 99.9396C5.3721 100.004 5.31266 100.049 5.24309 100.057C5.17479 100.065 5.10648 100.035 5.06726 99.9776L4.77633 99.5628ZM5.50747 104.842C5.04198 104.842 4.48794 104.82 3.84283 104.765C3.56835 104.74 3.32421 104.606 3.15471 104.388C2.98648 104.172 2.91437 103.891 2.95991 103.618C3.01177 103.293 3.50761 100.408 4.64478 99.1215C4.68272 99.078 4.73966 99.0549 4.79785 99.0578C4.85477 99.061 4.90914 99.0908 4.94203 99.1383L5.17604 99.473L5.30382 99.1557C5.30761 99.1465 5.31267 99.1376 5.31773 99.1289C5.46066 98.8904 6.54217 98.9955 6.55229 98.9976C6.613 99.0087 6.79767 99.0428 6.82676 99.2088C6.82676 99.2131 6.82805 99.2174 6.82805 99.2218L6.84954 99.4222L7.18601 99.0447C7.23913 98.9853 7.32261 98.9653 7.39598 98.9943C7.47061 99.0229 7.5187 99.0947 7.51743 99.174L7.48326 101.464C7.47947 101.702 7.50225 101.942 7.55031 102.175L7.71349 102.967C7.82734 103.518 7.67681 104.081 7.30998 104.471C7.13922 104.654 6.95579 104.762 6.78249 104.78C6.47638 104.813 6.05265 104.842 5.50747 104.842Z" fill="black"/>
<path d="M5.58114 104.032C5.1245 104.032 4.5591 103.997 3.91905 103.884C3.81532 103.867 3.747 103.768 3.76471 103.664C3.78242 103.561 3.88236 103.492 3.98481 103.509C5.57103 103.789 6.69682 103.568 6.7082 103.565C6.80939 103.545 6.91058 103.611 6.93208 103.713C6.95232 103.816 6.88655 103.916 6.7841 103.937C6.75374 103.944 6.30594 104.032 5.58114 104.032Z" fill="black"/>
<path d="M6.10867 102.292H4.611C4.50601 102.292 4.42126 102.207 4.42126 102.102C4.42126 101.997 4.50601 101.912 4.611 101.912H6.10867C6.21366 101.912 6.29841 101.997 6.29841 102.102C6.29841 102.207 6.21366 102.292 6.10867 102.292Z" fill="black"/>
<path d="M19.2085 96.1195L19.7891 101.409L22.0116 101.875L21.8762 95.6728L19.2085 96.1195Z" fill="white"/>
<path d="M19.9632 101.251L21.8163 101.64L21.6911 95.8965L19.4167 96.2774L19.9632 101.251ZM22.0111 102.065C21.9984 102.065 21.9845 102.063 21.9719 102.061L19.7507 101.595C19.6697 101.578 19.609 101.511 19.6002 101.43L19.0195 96.1404C19.0082 96.0401 19.0777 95.9489 19.1764 95.9322L21.8441 95.4855C21.8985 95.4764 21.9542 95.4913 21.9972 95.5265C22.0389 95.5616 22.0642 95.6135 22.0655 95.6686L22.2008 101.871C22.2021 101.929 22.1768 101.984 22.1325 102.021C22.0984 102.049 22.0554 102.065 22.0111 102.065Z" fill="black"/>
<path d="M18.8485 103.931C18.8005 103.004 18.7992 101.297 19.3634 100.475L21.1406 101.108V100.728C21.1406 100.606 21.2279 100.505 21.3392 100.498L22.3309 100.441C22.7002 100.42 23.0683 100.497 23.4073 100.663C24.4028 101.154 27.4361 102.412 27.856 103.827C27.98 104.244 27.6537 104.662 27.2198 104.675C26.2218 104.702 23.8222 104.734 19.5164 104.587C19.1585 104.574 18.8675 104.289 18.8485 103.931Z" fill="white"/>
<path d="M19.0381 103.921C19.052 104.183 19.2607 104.388 19.5225 104.397C23.7828 104.543 26.1697 104.514 27.2133 104.485C27.3676 104.479 27.513 104.402 27.6028 104.277C27.6876 104.16 27.7142 104.016 27.6737 103.882C27.3284 102.717 24.9212 101.587 23.7638 101.043C23.593 100.963 23.4425 100.893 23.3224 100.834C23.015 100.682 22.6747 100.613 22.3408 100.631L21.3491 100.688C21.344 100.688 21.3301 100.702 21.3301 100.728V101.108C21.3301 101.17 21.2997 101.228 21.2491 101.263C21.1986 101.299 21.134 101.308 21.0771 101.287L19.4441 100.705C19.1089 101.313 18.9622 102.469 19.0381 103.921ZM25.2298 104.889C23.9067 104.889 22.0359 104.863 19.5099 104.776C19.0494 104.761 18.6839 104.401 18.6598 103.941C18.6092 102.979 18.6118 101.234 19.2063 100.367C19.2544 100.296 19.3454 100.267 19.4264 100.296L20.9506 100.839V100.728C20.9506 100.505 21.1163 100.321 21.3276 100.309L22.3193 100.252C22.719 100.229 23.1238 100.312 23.4906 100.493C23.6095 100.551 23.7562 100.62 23.9257 100.699C25.2248 101.31 27.6433 102.446 28.038 103.773C28.1113 104.021 28.0658 104.287 27.9102 104.5C27.7521 104.72 27.4953 104.856 27.2246 104.864C26.7958 104.876 26.1431 104.889 25.2298 104.889Z" fill="black"/>
<path d="M24.5422 104.01C23.2798 104.01 21.5734 103.954 19.7102 103.737C19.6065 103.726 19.5319 103.631 19.5432 103.527C19.5559 103.423 19.6495 103.349 19.7545 103.36C23.5366 103.799 26.6597 103.57 26.69 103.568C26.7938 103.56 26.8861 103.639 26.8937 103.744C26.9025 103.848 26.8241 103.939 26.7191 103.948C26.7027 103.948 25.8666 104.01 24.5422 104.01Z" fill="black"/>
<path d="M23.9919 102.496C23.9527 102.496 23.9148 102.484 23.8806 102.46L22.1692 101.227C22.0844 101.166 22.0655 101.048 22.1262 100.962C22.1869 100.877 22.3058 100.858 22.3906 100.919L24.102 102.151C24.1868 102.213 24.207 102.331 24.145 102.416C24.1083 102.468 24.0501 102.496 23.9919 102.496Z" fill="black"/>
<path d="M19.9004 61.8007C19.9004 61.8007 23.0855 83.6784 22.4062 98.2804L21.4133 98.38C20.8782 98.4334 20.3406 98.4467 19.8043 98.4197L18.8619 98.3724C18.8619 98.3724 15.0634 76.1908 13.1672 72.5072C13.1672 72.5072 8.00889 92.233 7.81029 97.5769C7.81029 97.5769 5.51826 97.8078 4.60372 97.4785C4.11293 92.3211 3.97125 86.9826 3.94722 83.6314C3.87638 74.0396 4.79219 69.6826 5.29436 67.6156C5.75479 65.7178 6.24938 64.1753 6.60988 63.1321L7.81662 59.6875L19.9004 61.8007Z" fill="#5479F7"/>
<path d="M19.0244 98.1901L19.815 98.23C20.3399 98.2564 20.8712 98.2433 21.3949 98.1908L22.2246 98.1078C22.8381 84.2887 19.9971 63.8315 19.7327 61.9641L7.94242 59.9024L6.79008 63.1949C6.28537 64.6518 5.8439 66.1545 5.47834 67.6605C4.87118 70.1638 4.07048 74.5428 4.13752 83.6299C4.15776 86.4132 4.26781 91.8767 4.78137 97.3352C5.55803 97.5504 7.12147 97.4445 7.6287 97.4023C7.92343 91.8664 12.9325 72.6544 12.9844 72.4591C13.0046 72.3828 13.0691 72.327 13.1463 72.3184C13.226 72.3096 13.3006 72.3503 13.336 72.4199C15.1639 75.9694 18.6601 96.0759 19.0244 98.1901ZM20.3424 98.6232C20.1603 98.6232 19.9781 98.6185 19.796 98.6096L18.8536 98.5621C18.7651 98.5574 18.6905 98.492 18.6753 98.4043C18.6399 98.1911 15.1386 77.8266 13.2159 73.0762C12.4013 76.2356 8.17769 92.8065 8.0006 97.5841C7.9968 97.6788 7.9247 97.7564 7.82983 97.7659C7.73496 97.7756 5.48341 97.9971 4.53978 97.6571C4.47147 97.6323 4.42213 97.5696 4.4158 97.4964C3.89086 91.982 3.77828 86.4435 3.75804 83.6327C3.691 74.5035 4.49676 70.0936 5.11025 67.5707C5.47834 66.053 5.9236 64.5387 6.43209 63.0698L7.63757 59.6247C7.6692 59.5369 7.75773 59.4846 7.85007 59.5004L19.9339 61.6136C20.0136 61.6276 20.0768 61.6921 20.0882 61.7733C20.1198 61.9923 23.2682 83.836 22.5965 98.2893C22.5927 98.3832 22.5194 98.4601 22.4258 98.4694L21.4328 98.5689C21.071 98.605 20.7067 98.6232 20.3424 98.6232Z" fill="black"/>
<path d="M12.9898 73.3378C12.9721 73.3378 12.9556 73.3355 12.9392 73.3308C12.838 73.3029 12.7785 73.1985 12.8064 73.0973L13.3364 71.1662C13.4983 70.5749 13.9713 70.1304 14.5722 70.0064L15.0668 69.9038C15.1692 69.8821 15.2704 69.9485 15.2919 70.0513C15.3122 70.1541 15.2464 70.2546 15.1439 70.2758L14.6481 70.3784C14.1889 70.4735 13.8259 70.8139 13.7019 71.2669L13.1719 73.1979C13.1492 73.2823 13.072 73.3378 12.9898 73.3378Z" fill="black"/>
<path d="M5.98939 69.7409C5.89832 69.7409 5.81736 69.675 5.80218 69.5821C5.78447 69.4786 5.85405 69.3807 5.95777 69.3635C8.67988 68.9093 9.22 66.8403 9.2415 66.7524C9.2668 66.6508 9.37054 66.5886 9.47173 66.6133C9.57293 66.6382 9.63491 66.7406 9.61087 66.8424C9.60455 66.8663 8.99738 69.2415 6.01976 69.7382C6.00964 69.74 5.99951 69.7409 5.98939 69.7409Z" fill="black"/>
<path d="M20.0442 68.3032C20.0189 68.3032 19.9936 68.2982 19.9695 68.2875C18.2126 67.524 18.2556 65.8513 18.2569 65.8344C18.2607 65.7296 18.3492 65.6488 18.4529 65.6518C18.5579 65.6559 18.6401 65.7439 18.6363 65.8485C18.6338 65.9104 18.6098 67.2823 20.1201 67.939C20.2162 67.9808 20.2605 68.0926 20.2188 68.1889C20.1871 68.2604 20.1175 68.3032 20.0442 68.3032Z" fill="black"/>
<path d="M19.6447 43.5916C17.5374 43.3538 13.0406 42.9272 9.94783 43.2106C9.01305 43.296 7.66592 43.867 6.95503 44.4805C4.86412 46.2879 0.917555 50.2682 0.258531 55.0446C0.162397 55.7416 0.617759 56.3957 1.30461 56.5479L4.95013 57.3569C4.95013 57.3569 3.49672 63.0928 3.61435 64.0834C3.73073 65.0739 6.74252 66.7595 10.5095 65.3769C13.4479 64.2986 17.6044 63.4413 20.2443 64.3714C20.2696 64.3803 20.5226 66.4111 20.5479 66.4149C21.3954 66.5383 22.2492 66.208 22.229 65.0154L21.828 58.8215L26.66 58.1826L27.0913 58.0386C28.3967 57.6031 29.0722 56.1609 28.5687 54.8781C27.4341 51.985 25.7201 47.3015 22.5477 44.7148C21.8697 44.1614 20.5137 43.6898 19.6447 43.5916Z" fill="black"/>
<path d="M17.4472 62.6534H24.9988C25.3264 62.6534 25.6123 62.4296 25.692 62.1109L28.304 51.5638C28.4153 51.1132 28.0751 50.6773 27.6109 50.6773H20.0606C19.7329 50.6773 19.4471 50.9011 19.3674 51.2198L16.7553 61.767C16.644 62.2175 16.9843 62.6534 17.4472 62.6534Z" fill="#99B9FF"/>
<path d="M27.0758 56.0683L26.8215 57.1324L25.9095 56.828C25.4061 56.6604 24.9241 56.4367 24.47 56.1615L23.9463 55.8436C23.5555 55.6061 23.0483 55.7915 22.8952 56.2237C22.5726 57.1412 22.6372 58.6784 25.9247 59.6441C27.7398 60.177 28.2585 57.8493 28.0245 56.5561C27.9637 56.2254 27.8018 56.0143 27.6349 55.8808C27.4363 55.721 27.139 55.8208 27.0758 56.0683Z" fill="white"/>
<path d="M23.5754 55.9294C23.516 55.9294 23.4552 55.9395 23.3983 55.9603C23.2465 56.0146 23.1276 56.1336 23.0745 56.2867C22.8999 56.7839 22.9214 57.2525 23.139 57.6792C23.5185 58.4202 24.4735 59.02 25.9775 59.4618C26.4594 59.6031 26.8642 59.5295 27.183 59.2428C27.7939 58.6921 27.995 57.4616 27.8369 56.59C27.7939 56.3541 27.6864 56.1652 27.5169 56.029C27.4549 55.9794 27.3891 55.9934 27.3651 56.0018C27.3398 56.0102 27.2791 56.0378 27.2601 56.1139L27.0059 57.1765C26.9945 57.2283 26.9603 57.2725 26.9135 57.2984C26.868 57.3242 26.8123 57.3295 26.7617 57.3127L25.8485 57.0082C25.3336 56.8363 24.8365 56.6061 24.371 56.3239L23.8474 56.006C23.7639 55.9552 23.6703 55.9294 23.5754 55.9294ZM26.4278 59.9111C26.2507 59.9111 26.0635 59.883 25.8712 59.8263C24.2623 59.354 23.2301 58.69 22.8013 57.8524C22.5382 57.3366 22.5078 56.7515 22.7165 56.1604C22.8089 55.8989 23.01 55.6956 23.2705 55.6025C23.5273 55.5102 23.8107 55.5388 24.0447 55.681L24.5684 55.9991C25.0086 56.2665 25.4804 56.4848 25.9686 56.6478L26.6858 56.8866L26.8908 56.024C26.8908 56.0231 26.892 56.0221 26.892 56.0212C26.9376 55.842 27.0691 55.7 27.2437 55.6415C27.4195 55.5828 27.6092 55.617 27.7534 55.7325C27.9963 55.9278 28.1506 56.1933 28.2101 56.522C28.3846 57.4826 28.1734 58.8617 27.4359 59.5252C27.1526 59.7813 26.8098 59.9111 26.4278 59.9111Z" fill="black"/>
<path d="M9.6131 49.9625C9.23489 50.3498 8.80482 50.6819 8.33553 50.9497C6.75058 51.8535 2.96342 54.0415 2.02105 54.8475C0.820641 55.8743 0.246366 56.2571 1.2115 58.8983C2.7838 63.2038 10.1153 52.1514 10.1153 52.1514C10.1153 52.1514 12.2682 52.5413 12.7526 50.652C12.7526 50.652 13.8746 50.863 14.3426 50.6598C14.7006 50.5042 14.6854 49.8947 14.206 49.8277L11.1095 49.2496C10.6832 49.1732 10.2456 49.3133 9.94324 49.6237L9.6131 49.9625Z" fill="white"/>
<path d="M9.74937 50.0952C9.35978 50.4952 8.9158 50.8381 8.43008 51.1149C6.85019 52.0159 3.07439 54.1974 2.14594 54.9919L2.03968 55.0824C0.950579 56.0108 0.500282 56.395 1.39079 58.833C1.58558 59.368 1.87146 59.6505 2.26232 59.6969C2.3028 59.7017 2.34453 59.7041 2.38627 59.7041C4.42659 59.7046 8.52366 54.2095 9.95809 52.0462C9.99983 51.9832 10.0745 51.9509 10.1504 51.9644C10.2313 51.9787 12.1363 52.2978 12.5689 50.6049C12.5942 50.508 12.6903 50.4467 12.7877 50.4653C13.085 50.5209 13.9287 50.633 14.2677 50.4857C14.3765 50.4383 14.4119 50.316 14.3992 50.2221C14.3904 50.1553 14.3499 50.0396 14.1817 50.0159L11.075 49.4363C10.712 49.3712 10.3388 49.4907 10.0795 49.7564L9.74937 50.0952ZM2.37488 60.0834C2.32175 60.0834 2.26991 60.0804 2.21805 60.0742C1.67793 60.0104 1.27946 59.6365 1.03406 58.9635C0.0904328 56.3802 0.555924 55.8488 1.79302 54.7933L1.89928 54.703C2.85176 53.8874 6.65285 51.6911 8.24286 50.7847C8.69696 50.5256 9.11312 50.2043 9.47742 49.8298V49.8296L9.80884 49.491C10.1554 49.1351 10.6551 48.9749 11.1433 49.0625L14.2424 49.641C14.5245 49.6803 14.737 49.8889 14.7762 50.171C14.8141 50.4536 14.6674 50.7263 14.4182 50.8342C14.0109 51.0108 13.2393 50.9212 12.8877 50.8674C12.3703 52.4551 10.6854 52.4029 10.2085 52.3545C9.57229 53.3001 4.9199 60.0834 2.37488 60.0834Z" fill="black"/>
<path d="M16.7903 39.5361L17.0217 42.7651C17.0723 43.185 17.3746 43.5311 17.7845 43.6378L18.9166 43.9335L18.1817 44.4937C16.5525 45.7363 14.2958 45.7383 12.6641 44.4988L11.5003 43.6153L12.9082 43.3007C13.3117 43.2103 13.6229 42.8858 13.6963 42.4776L14.3186 38.2051L16.7903 39.5361Z" fill="white"/>
<path d="M11.9407 43.7116L12.778 44.3475C14.3364 45.5309 16.5108 45.5287 18.0667 44.3427L18.4917 44.0188L17.7365 43.8216C17.2483 43.6944 16.8941 43.2887 16.8334 42.788L16.6082 39.6539L14.4667 38.5002L13.8848 42.505C13.7963 42.996 13.4295 43.3787 12.9501 43.486L11.9407 43.7116ZM15.4192 45.6133C14.4073 45.6133 13.3941 45.2924 12.5491 44.6502L11.3866 43.7667C11.3272 43.7221 11.2993 43.6471 11.3158 43.5749C11.331 43.5026 11.3879 43.4461 11.4587 43.43L12.8666 43.1153C13.1967 43.0413 13.4497 42.7778 13.5104 42.4438L14.1302 38.1772C14.1391 38.1165 14.1783 38.0633 14.2327 38.0354C14.2883 38.0075 14.3541 38.0088 14.4085 38.0379L16.8802 39.369C16.9371 39.3994 16.9751 39.4577 16.9789 39.5225L17.2116 42.7514C17.2521 43.0869 17.4962 43.3663 17.8327 43.454L18.9648 43.7496C19.0356 43.7679 19.0887 43.8248 19.1039 43.8961C19.1178 43.9674 19.09 44.0405 19.0318 44.0846L18.2969 44.645C17.4507 45.2904 16.4349 45.6133 15.4192 45.6133Z" fill="black"/>
<path d="M20.455 35.0414C19.6796 34.6311 20.3032 35.9103 17.7531 33.7002C16.7386 32.82 16.702 34.4627 16.4376 34.236C15.4623 33.395 15.4965 33.4229 14.8817 33.3165C14.4732 33.2455 13.9293 33.8079 13.7673 34.3411C13.5536 35.044 14.0203 35.4644 13.861 37.0843C13.7484 38.2203 13.3917 38.7789 13.718 39.1031C14.0494 39.4298 14.5883 39.0296 14.9766 39.3589C15.4788 39.7859 14.9058 40.7342 15.2764 41.4066C15.5104 41.8304 16.2795 42.3292 17.8961 42.2905C18.1579 42.2841 18.3805 42.091 18.4223 41.8312C18.4779 41.4983 18.5449 41.0773 18.5753 40.67C18.7195 38.7282 18.3021 38.0836 18.7132 37.7517C19.3431 37.2426 20.4132 38.1899 20.8673 37.7441C21.3404 37.2793 21.5162 35.6038 20.455 35.0414Z" fill="black"/>
<path d="M16.5965 36.1306L16.6294 36.6612C16.6445 36.9107 16.642 37.1615 16.623 37.411C16.5863 37.8796 16.5307 38.6851 16.5332 39.1385C16.537 39.8048 18.5938 39.9349 18.5938 39.9349L18.8556 39.6441L19.0972 39.6542C19.1428 39.6561 19.1908 39.6485 19.2326 39.6269C19.3363 39.5725 19.3882 39.4615 19.3705 39.3538C19.2731 38.7649 19.1023 37.4655 19.2908 36.4561C19.2908 36.4561 18.1473 35.5265 16.5965 36.1306Z" fill="white"/>
<path d="M16.7956 36.261L16.8196 36.6485C16.8348 36.9069 16.8323 37.1678 16.8133 37.4249C16.7779 37.8707 16.7209 38.6838 16.7235 39.1372C16.7247 39.4158 17.6507 39.671 18.5159 39.7388L18.7145 39.5172C18.7524 39.4754 18.8068 39.4526 18.8637 39.4538L19.1053 39.464C19.1218 39.4652 19.137 39.4627 19.1445 39.4589C19.18 39.4399 19.1875 39.407 19.1838 39.3842C19.0775 38.7395 18.927 37.5364 19.0838 36.5396C18.8119 36.3572 17.9378 35.8734 16.7956 36.261ZM18.5943 40.1248C18.5905 40.1248 18.5867 40.1247 18.5829 40.1244C18.2098 40.1009 16.3491 39.9426 16.344 39.1397C16.3415 38.6724 16.3997 37.8467 16.4351 37.3958C16.4528 37.1551 16.4553 36.912 16.4401 36.6726L16.4085 36.1419C16.4034 36.0596 16.4515 35.9836 16.5287 35.9532C18.1617 35.3162 19.3608 36.2673 19.4114 36.3079C19.4646 36.3522 19.4911 36.4218 19.4785 36.4902C19.2925 37.4857 19.4721 38.8029 19.5582 39.3221C19.5898 39.5146 19.4949 39.7045 19.3204 39.7952C19.2533 39.8306 19.1724 39.8475 19.0889 39.8439L18.9371 39.8376L18.736 40.0619C18.6993 40.102 18.6487 40.1248 18.5943 40.1248Z" fill="black"/>
<path d="M16.2366 37.7644C16.2366 37.7644 16.1607 36.489 15.5902 36.6511C15.0185 36.812 15.1374 38.214 16.2366 37.7644Z" fill="white"/>
<path d="M104.81 73.7504L95.1919 82.413L69.1497 82.3318C69.1117 82.3317 69.0915 82.2898 69.1193 82.2653L78.5923 73.733L104.81 73.7504Z" fill="#CADDFF"/>
<path d="M69.5387 82.1431L95.1192 82.2228L104.315 73.9401L78.6651 73.923L69.5387 82.1431ZM95.1913 82.603L69.1491 82.5218C69.0504 82.5214 68.9657 82.4631 68.9315 82.3731C68.8974 82.2851 68.9214 82.1874 68.9923 82.124L78.4652 73.5916C78.5007 73.5603 78.5449 73.543 78.5917 73.543H78.593L104.81 73.5604C104.888 73.5604 104.959 73.6089 104.987 73.6824C105.015 73.7559 104.996 73.8391 104.936 73.8918L95.3191 82.5542C95.2836 82.5856 95.2381 82.603 95.1913 82.603Z" fill="#5479F7"/>
<path d="M104.81 73.7581V95.93L95.3379 104.467C95.3012 104.5 95.2379 104.476 95.2379 104.429V82.413C95.2379 82.413 104.673 73.7643 104.81 73.7581Z" fill="#99B9FF"/>
<path d="M95.4282 82.4966V104.129L104.62 95.8455V74.1559C103.409 75.2048 98.6917 79.5062 95.4282 82.4966ZM95.2967 104.672C95.2625 104.672 95.2271 104.664 95.1942 104.649C95.1057 104.61 95.0487 104.524 95.0487 104.429V82.413C95.0487 82.3597 95.0715 82.3089 95.1107 82.2728C95.1348 82.2512 97.4964 80.0857 99.8453 77.9474C104.648 73.5754 104.699 73.573 104.801 73.5683C104.853 73.5658 104.904 73.585 104.942 73.6208C104.978 73.6566 105 73.7062 105 73.7582V95.9301C105 95.9839 104.977 96.0353 104.938 96.0714L95.4649 104.607C95.4181 104.649 95.3574 104.672 95.2967 104.672Z" fill="black"/>
<path d="M95.2391 104.482L69.0869 104.402C69.1425 104.453 69.1071 82.3501 69.1071 82.3501L95.2391 82.413C95.2391 82.413 95.2391 104.511 95.2391 104.482Z" fill="#5479F7"/>
<path d="M69.2819 104.212L95.0483 104.292V82.6026L69.2958 82.5406C69.2971 83.5557 69.3046 88.4599 69.3059 93.3666C69.3072 96.5659 69.3059 99.1161 69.3021 100.946C69.2996 101.981 69.2971 102.843 69.292 103.449C69.2895 103.812 69.2882 104.051 69.2819 104.212ZM95.2381 104.672L69.0896 104.592C69.0377 104.596 68.9947 104.576 68.9581 104.543C68.9075 104.497 68.886 104.429 68.8999 104.363C68.9403 103.777 68.9277 89.7393 68.9163 82.3505C68.9151 82.2999 68.9353 82.2514 68.9707 82.2158C69.0074 82.1801 69.0555 82.1602 69.1061 82.1602L95.2393 82.223C95.3431 82.2233 95.4278 82.3083 95.4278 82.413V104.482C95.4278 104.533 95.4088 104.581 95.3722 104.616C95.3367 104.652 95.2887 104.672 95.2381 104.672Z" fill="black"/>
<path d="M92.2177 88.0011L87.0518 89.3914C86.7849 89.4634 86.6875 89.7924 86.8722 89.999L87.4123 90.6038C87.5489 90.7567 87.5362 90.9916 87.3832 91.1288L84.4372 93.7789C84.2841 93.9162 84.0488 93.9035 83.9122 93.7507L80.7626 90.2401C80.626 90.0871 80.3907 90.0745 80.2376 90.2118L72.3496 97.2839C72.1965 97.4212 72.1851 97.6565 72.3218 97.8094L73.4728 99.0927C73.6107 99.2456 73.8447 99.2583 73.9978 99.1209L80.0517 93.6999C80.2047 93.5626 80.44 93.5752 80.5766 93.7281L83.725 97.2376C83.8629 97.3904 84.0982 97.403 84.25 97.2657L89.0276 92.9692C89.1806 92.8318 89.4159 92.8446 89.5525 92.998L90.1357 93.6501C90.3216 93.8582 90.6618 93.7946 90.7605 93.5333L92.6617 88.4919C92.7692 88.2083 92.5099 87.9225 92.2177 88.0011Z" fill="white"/>
<path d="M50.1543 42.2719C50.0417 42.1088 50.0417 41.8984 50.1543 41.7353C50.3086 41.51 50.3934 41.2674 50.3934 41.0142C50.3934 39.8374 48.5719 38.8839 46.3266 38.8839C44.0801 38.8839 42.2599 39.8374 42.2599 41.0142C42.2599 41.2674 42.3447 41.51 42.499 41.7353C42.6103 41.8984 42.6103 42.1088 42.499 42.2719C42.3447 42.4972 42.2599 42.74 42.2599 42.9931C42.2599 43.5515 42.6698 44.0595 43.3402 44.4393C43.325 44.5027 43.3174 44.5672 43.3174 44.6325C43.3174 45.5035 44.6645 46.2095 46.3266 46.2095C47.9887 46.2095 49.3359 45.5035 49.3359 44.6325C49.3359 44.5672 49.327 44.5027 49.3131 44.4393C49.9835 44.0595 50.3934 43.5515 50.3934 42.9931C50.3934 42.74 50.3086 42.4972 50.1543 42.2719Z" fill="#99B9FF"/>
<path d="M46.3262 39.0739C44.2252 39.0739 42.4492 39.9622 42.4492 41.0142C42.4492 41.2226 42.5188 41.4289 42.6541 41.6276C42.811 41.8561 42.811 42.1512 42.6541 42.3797C42.5188 42.5783 42.4492 42.7847 42.4492 42.9931C42.4492 43.4595 42.7983 43.9144 43.4333 44.274L43.5573 44.344L43.5244 44.4826C43.513 44.5344 43.5067 44.5848 43.5067 44.6325C43.5067 45.3843 44.7982 46.0193 46.3262 46.0193C47.8542 46.0193 49.1457 45.3843 49.1457 44.6325C49.1457 44.5844 49.1394 44.5354 49.1267 44.4826L49.0951 44.344L49.2191 44.274C49.854 43.9144 50.2032 43.4595 50.2032 42.9931C50.2032 42.7847 50.1336 42.5783 49.997 42.3796C49.8401 42.1512 49.8401 41.8561 49.997 41.6276C50.1336 41.4289 50.2032 41.2226 50.2032 41.0142C50.2032 39.9622 48.4272 39.0739 46.3262 39.0739ZM46.3262 46.3993C44.5325 46.3993 43.1272 45.6233 43.1272 44.6325C43.1272 44.6011 43.1285 44.5692 43.131 44.5369C42.4454 44.1156 42.0697 43.571 42.0697 42.9931C42.0697 42.7065 42.1608 42.4276 42.3417 42.1644C42.4087 42.0667 42.4087 41.9406 42.3417 41.8428C42.1608 41.5798 42.0697 41.3009 42.0697 41.0142C42.0697 39.7128 43.9393 38.6939 46.3262 38.6939C48.7131 38.6939 50.5826 39.7128 50.5826 41.0142C50.5826 41.3009 50.4903 41.5798 50.3107 41.843C50.2436 41.9406 50.2436 42.0667 50.3107 42.1643V42.1644C50.4903 42.4276 50.5826 42.7065 50.5826 42.9931C50.5826 43.571 50.207 44.1156 49.5201 44.5369C49.5239 44.5692 49.5252 44.6011 49.5252 44.6325C49.5252 45.6233 48.1198 46.3993 46.3262 46.3993Z" fill="black"/>
<path d="M57.3644 24.6777C57.3644 18.6441 52.3478 13.4958 46.3217 13.4958C40.3057 13.4958 35.3434 18.5047 35.303 24.5269C35.2827 27.5944 36.7614 30.4465 38.7752 32.4438C40.2286 33.8838 41.2873 35.6734 41.8021 37.6542L41.8274 37.7504C42.327 39.6731 44.06 41.0156 46.0447 41.0156H46.858C48.8427 41.0156 50.5769 39.6731 51.0765 37.7504L51.0917 37.6922C51.6027 35.7253 52.6185 33.918 54.0718 32.4983C56.1033 30.5149 57.3644 27.7438 57.3644 24.6777Z" fill="#CADDFF"/>
<path d="M46.3212 13.6857C40.39 13.6857 35.5327 18.549 35.4922 24.5282C35.4745 27.3031 36.7192 30.1387 38.9088 32.3083C40.4065 33.7926 41.4715 35.6252 41.9851 37.606L42.0104 37.7023C42.4885 39.5412 44.1468 40.8256 46.0442 40.8256H46.8576C48.7562 40.8256 50.4145 39.5412 50.8927 37.7023L50.9078 37.644C51.4353 35.61 52.4839 33.7837 53.9386 32.3627C56.0257 30.3249 57.1743 27.5956 57.1743 24.6776C57.1743 18.72 52.2044 13.6857 46.3212 13.6857ZM46.8576 41.2055H46.0442C43.9735 41.2055 42.1647 39.8043 41.6435 37.7972L41.6182 37.7023C41.1211 35.7873 40.0915 34.0155 38.6419 32.578C36.3802 30.3376 35.0938 27.4018 35.1128 24.5256C35.133 21.5582 36.3132 18.7504 38.437 16.6189C40.5646 14.4823 43.3651 13.3057 46.3212 13.3057C52.4093 13.3057 57.5537 18.5136 57.5537 24.6776C57.5537 27.6982 56.3647 30.5238 54.2042 32.635C52.7976 34.0079 51.7857 35.7734 51.2747 37.7403L51.2595 37.7985C50.7383 39.8043 48.9282 41.2055 46.8576 41.2055Z" fill="black"/>
<path d="M48.0484 22.7045C47.8839 22.8501 47.7347 23.0312 47.6095 23.2529C46.8202 24.646 47.0794 25.3933 47.3046 25.715C47.5411 26.0531 47.9497 26.2279 48.3482 26.1608C48.6669 26.1076 48.8997 25.9075 48.9844 25.6098C49.2766 24.5852 48.7732 23.3947 48.0484 22.7045ZM44.7748 22.8058C44.4193 23.206 44.1309 23.7544 43.9247 24.4358C43.6958 25.1868 43.7704 25.8226 44.1284 26.1823C44.3624 26.4179 44.6913 26.5014 45.0063 26.4065C45.3908 26.2912 45.6691 25.9366 45.7703 25.4338C45.9221 24.6815 45.5185 23.2124 44.7748 22.8058ZM44.7545 26.8244C44.4244 26.8244 44.1006 26.6927 43.859 26.4508C43.3998 25.9885 43.291 25.2134 43.5617 24.3256C43.7869 23.5847 44.0816 23.0502 44.3966 22.6652C43.1253 22.2979 42.2348 22.9059 41.9945 23.4999C41.8705 23.8063 41.8199 24.1331 41.8439 24.47C41.8515 24.5751 41.7731 24.6663 41.6681 24.6726C41.5631 24.6802 41.4733 24.6017 41.4657 24.4978C41.4379 24.1078 41.4986 23.7126 41.6428 23.3567C42.0059 22.4601 43.2316 21.8585 44.6824 22.3575C44.9822 22.0763 45.2845 21.9104 45.5476 21.8116C46.4268 21.4849 47.316 21.7318 47.8548 22.0712C47.9257 22.1156 47.994 22.165 48.0623 22.2169C48.8099 21.7255 49.7269 21.7306 50.3038 21.9167C51.298 22.2359 51.6344 23.0629 51.742 23.7C51.7597 23.8038 51.6901 23.9013 51.5876 23.9191C51.4827 23.9368 51.3853 23.8671 51.3688 23.7633C51.2373 22.9882 50.8401 22.4879 50.1886 22.2789C49.7168 22.127 48.9806 22.1143 48.3596 22.4803C49.1425 23.2668 49.6738 24.5776 49.3487 25.715C49.2235 26.1519 48.8731 26.4584 48.4102 26.5356C47.87 26.6268 47.3135 26.39 46.9934 25.9328C46.7177 25.5376 46.3875 24.6397 47.2793 23.0654C47.4159 22.8235 47.5766 22.6247 47.7524 22.4601C47.7195 22.4373 47.6866 22.4145 47.6525 22.3929C47.1908 22.1016 46.4293 21.8889 45.6792 22.1675C45.4566 22.2511 45.2479 22.3739 45.0556 22.5335C45.8955 23.0933 46.318 24.6422 46.1422 25.5098C46.0131 26.1532 45.6387 26.6129 45.115 26.7699C44.9961 26.8067 44.8747 26.8244 44.7545 26.8244Z" fill="black"/>
<path d="M51.3829 31.7257C51.3196 31.7257 51.2577 31.6941 51.2222 31.6358C51.1666 31.5471 51.1931 31.4306 51.2817 31.3749C53.2372 30.1426 54.6451 28.1428 55.1435 25.8872C55.1663 25.7846 55.2675 25.72 55.3699 25.7428C55.4724 25.7656 55.5369 25.8669 55.5141 25.9695C54.9942 28.3239 53.5244 30.4111 51.4841 31.6966C51.4524 31.7156 51.417 31.7257 51.3829 31.7257Z" fill="white"/>
<path d="M39.5049 30.4592C39.4517 30.4592 39.3999 30.4376 39.3632 30.3958C37.8871 28.7342 37.075 26.5938 37.075 24.3686C37.075 20.8971 39.004 17.7815 42.1094 16.2377C42.2042 16.1908 42.3181 16.2288 42.3649 16.3225C42.4104 16.4175 42.3725 16.5315 42.2789 16.5784C39.3025 18.0576 37.4544 21.0428 37.4544 24.3686C37.4544 26.5001 38.2324 28.5518 39.6466 30.1425C39.7161 30.2211 39.7085 30.3414 39.6301 30.411C39.5947 30.4427 39.5491 30.4592 39.5049 30.4592Z" fill="white"/>
<path d="M47.0211 42.3439C46.9313 42.3439 46.8503 42.2786 46.8351 42.1861C46.8174 42.0826 46.8858 41.9844 46.9895 41.9667C47.3601 41.9033 47.7193 41.8223 48.0609 41.7261C48.1608 41.6975 48.2658 41.7563 48.2949 41.8573C48.3227 41.9582 48.2645 42.0632 48.1633 42.0917C47.8104 42.1915 47.4373 42.2755 47.054 42.3412C47.0426 42.3431 47.0325 42.3439 47.0211 42.3439Z" fill="white"/>
<path d="M45.3065 44.4375C45.2027 44.4375 45.118 44.3535 45.1167 44.2492C45.1155 44.1442 45.2002 44.0584 45.3052 44.0576C46.1438 44.0502 47.3733 43.9334 48.4738 43.4186C48.5687 43.374 48.6813 43.4152 48.7255 43.5102C48.7698 43.6053 48.7293 43.7183 48.6345 43.7627C47.472 44.3065 46.1843 44.4298 45.3077 44.4375H45.3065Z" fill="white"/>
<path d="M46.3806 11.0565C46.3793 11.0565 46.378 11.0565 46.3768 11.0553C46.2717 11.054 46.1893 10.9666 46.1906 10.8615L46.2906 6.03613C46.2932 5.93101 46.3806 5.84363 46.4857 5.84996C46.5895 5.85249 46.6731 5.93861 46.6706 6.04373L46.5705 10.8703C46.5693 10.9729 46.4844 11.0565 46.3806 11.0565Z" fill="black"/>
<path d="M32.4107 20.887L29.3319 20.8858C29.2282 20.8858 29.1422 20.7996 29.1434 20.6958C29.1434 20.5907 29.2282 20.5058 29.3332 20.5058L32.4107 20.5071C32.5157 20.5071 32.6005 20.5932 32.6005 20.697C32.6005 20.8022 32.5145 20.887 32.4107 20.887Z" fill="black"/>
<path d="M35.2511 14.4443C35.2208 14.4443 35.1891 14.4367 35.16 14.4215L31.6891 12.537C31.598 12.4876 31.5638 12.3723 31.6132 12.2799C31.6638 12.1874 31.7789 12.1532 31.87 12.2039L35.3409 14.0872C35.4333 14.1366 35.4674 14.2518 35.4181 14.3443C35.3839 14.4076 35.3182 14.4443 35.2511 14.4443Z" fill="black"/>
<path d="M60.242 20.887C60.137 20.887 60.0522 20.8022 60.0522 20.697C60.0522 20.5932 60.137 20.5071 60.242 20.5071L63.3195 20.5058C63.4245 20.5058 63.5093 20.5907 63.5093 20.6958C63.5093 20.7996 63.4245 20.8858 63.3195 20.8858L60.242 20.887Z" fill="black"/>
<path d="M57.4024 14.4443C57.3354 14.4443 57.2696 14.4076 57.2354 14.3443C57.1848 14.2518 57.219 14.1366 57.3113 14.0872L60.7823 12.2039C60.8746 12.1532 60.9897 12.1874 61.0403 12.2799C61.0896 12.3723 61.0555 12.4876 60.9632 12.537L57.4922 14.4215C57.4644 14.4367 57.4328 14.4443 57.4024 14.4443Z" fill="black"/>
<path d="M77.4317 9.08203C76.2553 9.01997 75.0195 10.1548 75.3015 11.881C75.533 13.2919 77.0484 13.5933 77.7972 14.2924C80.2221 16.5544 81.0228 23.9558 84.5683 25.8884C87.3967 27.431 92.4008 26.8484 94.9546 23.3453C97.382 20.0132 97.5983 15.3081 94.6422 13.302C91.9833 11.4985 90.4351 14.0049 87.6219 12.3407C84.8492 10.6994 85.4108 8.82873 83.712 8.18915C81.3909 7.31527 80.7635 9.25554 77.4317 9.08203Z" fill="black"/>
<path d="M73.1617 27.4944C71.917 35.125 71.7728 35.2377 71.6046 36.0369C71.6046 36.0369 71.1113 38.2836 70.9746 40.4488C70.8557 42.3273 71.2087 53.6086 77.0324 56.0926C79.1347 56.9896 79.7444 55.3407 84.2222 55.5197C88.8113 55.7033 89.7423 57.3381 91.7447 56.7652C96.077 55.5254 97.4925 46.2163 97.2546 40.4638C97.0598 35.7785 94.7311 31.3546 90.0737 22.5069C89.3641 21.1593 88.2282 19.1013 86.3991 18.8391C85.5605 18.7188 85.2252 18.848 81.8593 19.7738C78.1973 20.7794 77.2676 19.7092 75.6953 20.7009C74.0712 21.7255 73.7853 23.6759 73.1617 27.4944Z" fill="#5479F7"/>
<path d="M79.8469 71.6791V75.3694L81.6191 75.2612L81.9682 71.6791H79.8469Z" fill="white"/>
<path d="M80.0372 71.8691V75.1674L81.4476 75.0814L81.76 71.8691H80.0372ZM79.8475 75.5594C79.7981 75.5594 79.7526 75.5409 79.7172 75.5076C79.6792 75.4717 79.6577 75.4217 79.6577 75.3694V71.6791C79.6577 71.5742 79.7425 71.4891 79.8475 71.4891H81.9687C82.0231 71.4891 82.0737 71.5118 82.1104 71.5514C82.1458 71.5912 82.1635 71.6441 82.1585 71.6975L81.8093 75.2797C81.8005 75.3726 81.7246 75.4453 81.6323 75.4509L79.8588 75.559C79.8551 75.5593 79.8513 75.5594 79.8475 75.5594Z" fill="black"/>
<path d="M81.8853 79.9707C81.163 80.0482 79.9816 80.0983 78.6041 79.8608C78.1525 79.783 77.8667 79.3328 77.9906 78.8913C78.3359 77.6613 79.0178 75.3694 79.5617 74.2715L79.8893 74.87L80.1511 74.2381C80.1954 74.1632 80.2738 74.1142 80.3598 74.1061L81.3009 74.1117C81.5805 74.1107 81.602 74.2631 81.6387 74.3789L81.8246 74.87L82.0826 74.2045L82.5671 79.128C82.6089 79.5486 82.3053 79.9256 81.8853 79.9707Z" fill="white"/>
<path d="M79.5762 74.6936C79.0437 75.9228 78.4302 78.0325 78.1747 78.9425C78.1292 79.1029 78.1532 79.2688 78.2417 79.4095C78.3303 79.5492 78.4745 79.6454 78.6364 79.6737C79.9797 79.9052 81.1346 79.8603 81.8657 79.7816C82.1794 79.7481 82.4097 79.4632 82.3793 79.1465L81.9707 74.9924C81.9353 75.0345 81.8822 75.0599 81.8253 75.0599C81.7469 75.0596 81.676 75.0109 81.6482 74.9376L81.4483 74.4047C81.4205 74.3127 81.418 74.3016 81.3092 74.3016C81.3067 74.3016 81.3054 74.3016 81.3029 74.3016L80.3719 74.2961C80.3516 74.2997 80.3327 74.3111 80.32 74.3277L80.0645 74.9428C80.0367 75.0104 79.9722 75.0558 79.9001 75.0597C79.8267 75.0634 79.7584 75.0254 79.723 74.9613L79.5762 74.6936ZM80.6527 80.2251C80.0455 80.2251 79.3397 80.1803 78.5731 80.048C78.3037 80.0017 78.0659 79.8429 77.9205 79.6122C77.7763 79.3826 77.7358 79.101 77.8092 78.8397C78.0925 77.829 78.8148 75.3525 79.3928 74.1872C79.4232 74.1236 79.4877 74.0828 79.5585 74.0816C79.6281 74.0801 79.6951 74.1182 79.728 74.1802L79.8659 74.431L79.976 74.1653C79.9797 74.1566 79.9835 74.1482 79.9886 74.1401C80.0645 74.014 80.1973 73.9306 80.3428 73.9169C80.3491 73.9164 80.3554 73.9166 80.3618 73.9161L81.3029 73.9216C81.3041 73.9216 81.3054 73.9216 81.3067 73.9216C81.7001 73.9216 81.7759 74.1743 81.8113 74.296L81.8278 74.3411L81.9075 74.1357C81.9391 74.0537 82.0226 74.0048 82.1099 74.0164C82.1972 74.0284 82.2642 74.0984 82.273 74.1859L82.7563 79.1093C82.8081 79.6326 82.4261 80.1036 81.9062 80.1595C81.5685 80.1957 81.1435 80.2251 80.6527 80.2251Z" fill="black"/>
<path d="M80.4462 79.3885C79.9642 79.3885 79.4051 79.3362 78.8093 79.1797C78.7081 79.1531 78.6474 79.049 78.674 78.9476C78.7005 78.8462 78.8055 78.7853 78.9055 78.8122C80.5511 79.2451 81.9438 78.819 81.9577 78.8147C82.0577 78.7837 82.1639 78.839 82.1955 78.9389C82.2271 79.039 82.1715 79.1455 82.0716 79.1772C82.0311 79.1898 81.386 79.3885 80.4462 79.3885Z" fill="black"/>
<path d="M81.1805 77.472H79.5627C79.4577 77.472 79.3729 77.3869 79.3729 77.282C79.3729 77.1771 79.4577 77.092 79.5627 77.092H81.1805C81.2855 77.092 81.3702 77.1771 81.3702 77.282C81.3702 77.3869 81.2855 77.472 81.1805 77.472Z" fill="black"/>
<path d="M92.8903 69.7266L93.414 74.1758L95.0773 74.118V69.7266H92.8903Z" fill="white"/>
<path d="M93.1046 69.9166L93.5827 73.9799L94.8881 73.9344V69.9166H93.1046ZM93.4145 74.3657C93.3196 74.3657 93.2374 74.2938 93.2273 74.198L92.7023 69.7489C92.696 69.695 92.7137 69.641 92.7491 69.6003C92.7858 69.5598 92.8364 69.5366 92.8908 69.5366H95.0779C95.1816 69.5366 95.2676 69.6216 95.2676 69.7266V74.1179C95.2676 74.2201 95.1854 74.3042 95.0842 74.3078L93.4221 74.3657C93.4195 74.3657 93.417 74.3657 93.4145 74.3657Z" fill="black"/>
<path d="M93.0197 73.114C93.0197 73.114 92.8059 75.09 92.8716 75.8849C92.9184 76.4536 93.6989 78.1715 94.1378 79.1024C94.3187 79.4856 94.664 79.7311 95.046 79.7477C95.5115 79.7679 96.1604 79.7914 96.6841 79.7919C97.4039 79.7926 97.8984 78.9737 97.6417 78.21C97.4038 77.5056 97.0282 76.6221 96.4362 75.6817C95.9897 74.9736 95.3382 73.0492 95.3382 73.0492H93.9835L93.7179 74.1753L93.0197 73.114Z" fill="white"/>
<path d="M93.1563 73.6669C93.0981 74.3054 93.0185 75.3535 93.0615 75.8691C93.0931 76.2601 93.5485 77.4089 94.31 79.0213C94.4592 79.3387 94.7451 79.5444 95.0537 79.5579C95.5091 79.5777 96.1618 79.6014 96.6842 79.6019C96.6842 79.6019 96.6842 79.6019 96.6855 79.6019C96.9359 79.6019 97.1623 79.4785 97.3242 79.2543C97.5241 78.9758 97.5747 78.6082 97.4621 78.2708C97.1725 77.4107 96.7727 76.5737 96.2756 75.783C95.8848 75.1639 95.3586 73.688 95.203 73.2391H94.1341L93.9026 74.219C93.8849 74.2928 93.8255 74.3492 93.7508 74.3624C93.6762 74.3758 93.6016 74.343 93.5598 74.2798L93.1563 73.6669ZM96.6855 79.9818C96.6842 79.9818 96.6842 79.9818 96.6842 79.9818C96.1555 79.9813 95.4964 79.9574 95.0373 79.9375C94.587 79.9179 94.1771 79.629 93.9671 79.1837C93.4068 77.9978 92.73 76.4659 92.6832 75.9005C92.6162 75.0968 92.8224 73.1749 92.8313 73.0935C92.8401 73.0138 92.897 72.9482 92.9755 72.9293C93.0526 72.9106 93.1336 72.9425 93.1778 73.0095L93.6345 73.7032L93.7989 73.0056C93.8192 72.9198 93.8963 72.8592 93.9836 72.8592H95.3383C95.4193 72.8592 95.4914 72.9111 95.518 72.9884C95.5243 73.0073 96.1668 74.8994 96.5957 75.5805C97.1105 76.3965 97.5228 77.2609 97.8214 78.1494C97.9732 78.6026 97.9023 79.0986 97.6316 79.4761C97.4014 79.7974 97.0561 79.9818 96.6855 79.9818Z" fill="black"/>
<path d="M95.6522 79.1349C95.0273 79.1349 94.5176 78.3198 94.4619 78.2269L93.6878 76.7297C93.6397 76.6363 93.6764 76.5219 93.77 76.4736C93.8623 76.4256 93.9775 76.4619 94.0255 76.5552L94.7895 78.0354C94.9072 78.2279 95.3069 78.7549 95.6522 78.7549L96.821 78.7533C96.926 78.7533 97.0108 78.8383 97.0108 78.943C97.012 79.0479 96.926 79.1331 96.8223 79.1332L95.6522 79.1349Z" fill="black"/>
<path d="M96.482 77.5271H94.9995C94.8945 77.5271 94.8098 77.4421 94.8098 77.3371C94.8098 77.2323 94.8945 77.1472 94.9995 77.1472H96.482C96.587 77.1472 96.6717 77.2323 96.6717 77.3371C96.6717 77.4421 96.587 77.5271 96.482 77.5271Z" fill="black"/>
<path d="M76.997 34.7855C76.997 34.7855 77.1741 48.3646 77.7433 57.2045C78.3138 66.0444 79.4383 72.8032 79.4383 72.8032C79.4383 72.8032 81.3723 73.4993 82.6423 73.1346C82.6423 73.1346 83.6935 65.3803 83.9325 62.7592C84.1704 60.1381 83.5366 58.8377 83.4835 56.6925C83.4291 54.5474 84.4069 45.0762 84.4069 45.0762C84.4069 45.0762 91.6979 66.4879 92.5315 71.217C92.5315 71.217 94.2973 71.5169 95.542 70.8357C95.542 70.8357 95.5812 62.4154 95.4041 61.1145C95.0778 58.7041 93.1968 56.3309 92.8591 53.7707C92.5214 51.2106 92.3253 44.785 91.3956 40.9311C90.4659 37.0766 88.6406 32.7477 88.6406 32.7477L76.997 34.7855Z" fill="black"/>
<path d="M89.0456 39.8839C89.0216 39.8839 88.9975 39.8792 88.9748 39.8695C87.9894 39.4653 87.1621 38.8042 86.5183 37.9024C86.4563 37.8176 86.4765 37.6985 86.5613 37.6377C86.6473 37.5769 86.7649 37.5959 86.8269 37.6808C87.429 38.523 88.2006 39.141 89.1177 39.518C89.2151 39.5577 89.2619 39.6687 89.2214 39.7658C89.1911 39.8393 89.1202 39.8839 89.0456 39.8839Z" fill="#99B9FF"/>
<path d="M78.0469 39.8309C77.9963 39.8309 77.947 39.8109 77.909 39.7712C77.8369 39.6949 77.8407 39.5747 77.9166 39.5032C78.6933 38.7699 78.7995 38.3507 78.9766 37.6554L79.0259 37.4629C79.0525 37.3616 79.155 37.3008 79.2574 37.3274C79.3586 37.354 79.4193 37.4578 79.3928 37.5592L79.3434 37.7491C79.1638 38.4584 79.0335 38.9713 78.1772 39.7792C78.1405 39.8138 78.0937 39.8309 78.0469 39.8309Z" fill="#99B9FF"/>
<path d="M57.0957 25.0475C57.6042 25.1488 58.5655 25.6503 58.6895 25.7808C59.6673 26.8003 60.2453 25.2108 60.2453 25.2108C60.2453 25.2108 58.4846 24.1445 57.4891 23.9899C55.5664 23.6936 56.0319 24.8372 57.0957 25.0475Z" fill="white"/>
<path d="M56.9259 24.1318C56.5464 24.1318 56.3782 24.223 56.3643 24.3028C56.3402 24.4383 56.6223 24.76 57.1333 24.8613C57.6734 24.9677 58.6715 25.487 58.8271 25.6491C59.037 25.8682 59.2331 25.9606 59.4077 25.9239C59.6771 25.8669 59.8959 25.5224 60.0072 25.2907C59.5734 25.0386 58.249 24.3003 57.4609 24.1787C57.2484 24.1458 57.0714 24.1318 56.9259 24.1318ZM59.328 26.3115C59.0686 26.3115 58.8093 26.1772 58.5538 25.9113C58.4514 25.8137 57.5381 25.3287 57.06 25.2337C56.4085 25.1045 55.919 24.6486 55.9911 24.2369C56.0328 23.9938 56.2884 23.6126 57.5179 23.8025C58.5399 23.9609 60.2716 25.0044 60.345 25.0488C60.4221 25.0956 60.4563 25.1906 60.4247 25.2767C60.3918 25.3667 60.0844 26.1684 59.4861 26.295C59.4329 26.3064 59.3798 26.3115 59.328 26.3115Z" fill="black"/>
<path d="M60.3914 25.9239C60.3534 25.9239 60.3155 25.9125 60.2826 25.8884L46.586 16.2707C46.5 16.2111 46.4785 16.0921 46.5392 16.006C46.5999 15.9198 46.7176 15.8996 46.8036 15.9604L60.5002 25.5781C60.5862 25.6377 60.6077 25.7567 60.547 25.8428C60.5103 25.8948 60.4508 25.9239 60.3914 25.9239Z" fill="#5479F7"/>
<path d="M58.7119 23.5733C58.9952 23.8683 59.5328 24.1356 59.9338 24.2192C60.1058 24.2546 60.2918 24.2774 60.4739 24.2711C61.9045 24.2166 61.5655 26.243 64.619 26.7218C64.7266 26.7382 64.8809 28.581 64.8758 29.061C63.6261 28.529 61.9741 27.3575 61.1949 27.5728C59.758 27.9731 59.2836 27.2309 58.9826 26.8877C58.192 25.9885 59.2596 25.1108 59.2596 25.1108C59.2596 25.1108 59.0774 25.0778 58.5095 24.7701C57.643 24.299 57.4482 22.2624 58.7119 23.5733Z" fill="white"/>
<path d="M61.4044 27.3575C62.0053 27.3575 62.8325 27.7995 63.7028 28.263C64.0291 28.4366 64.3643 28.6164 64.678 28.7646C64.6502 28.1769 64.5553 27.184 64.487 26.8927C62.7402 26.5913 62.0773 25.7744 61.5916 25.1753C61.2324 24.7333 60.9933 24.4408 60.4798 24.4598C60.3001 24.4674 60.1041 24.4484 59.8941 24.404C59.4337 24.3091 58.867 24.0076 58.5748 23.7049C58.1839 23.2997 58.0397 23.3301 58.0385 23.3313C58.0296 23.3377 57.9929 23.3997 58.003 23.5568C58.0245 23.9152 58.2598 24.418 58.6001 24.6029C59.1136 24.8815 59.2945 24.9233 59.2971 24.9246C59.3679 24.9398 59.4248 24.9955 59.4425 25.0651C59.459 25.1361 59.4362 25.2108 59.3805 25.2577C59.3755 25.2602 58.9201 25.6439 58.8822 26.1189C58.8644 26.3468 58.9441 26.5571 59.125 26.7623C59.149 26.7901 59.1743 26.8205 59.2009 26.8522C59.4944 27.2005 59.9358 27.7261 61.1438 27.3904C61.2248 27.3676 61.3121 27.3575 61.4044 27.3575ZM64.8754 29.2509C64.8501 29.2509 64.8248 29.2459 64.8007 29.2357C64.3997 29.0648 63.9545 28.8279 63.5244 28.5987C62.6719 28.144 61.7055 27.6273 61.2463 27.7565C59.803 28.1579 59.2224 27.4677 58.9113 27.0979C58.886 27.0675 58.8619 27.0396 58.8391 27.013C58.59 26.7306 58.4774 26.4178 58.5052 26.0872C58.5356 25.706 58.7468 25.3868 58.9188 25.1867C58.7974 25.1323 58.6342 25.0538 58.4192 24.9372C57.9044 24.6586 57.5869 23.9177 57.6236 23.4288C57.6476 23.1135 57.8133 23.0084 57.9094 22.9742C58.1523 22.8855 58.4597 23.0388 58.848 23.4415C59.0896 23.6923 59.5829 23.9519 59.9713 24.033C60.1509 24.0697 60.3191 24.0862 60.4658 24.0811C61.1717 24.0545 61.5183 24.4826 61.8863 24.936C62.3683 25.53 62.9691 26.2709 64.6477 26.5343C64.8033 26.5583 64.8703 26.6115 64.9778 27.6995C65.0297 28.2301 65.0676 28.8165 65.0651 29.0635C65.0638 29.1268 65.0322 29.1851 64.9791 29.2205C64.9475 29.2408 64.9108 29.2509 64.8754 29.2509Z" fill="black"/>
<path d="M60.3618 26.7914C60.2795 26.7914 60.2024 26.737 60.1796 26.6521C60.1518 26.5508 60.2112 26.447 60.3124 26.4191C60.4541 26.3798 60.5414 26.3038 60.5781 26.1886C60.6438 25.9783 60.5376 25.6389 60.3263 25.3806C60.1594 25.1779 59.9835 25.0753 59.8001 25.0791C59.4409 25.0855 59.131 25.4768 59.1272 25.4806C59.064 25.5629 58.9451 25.5794 58.8616 25.5148C58.7781 25.4515 58.7629 25.3324 58.8261 25.2488C58.8439 25.2273 59.2474 24.7081 59.7938 24.6992C60.0987 24.6916 60.3744 24.8423 60.6186 25.1387C60.8488 25.4186 61.0701 25.891 60.9398 26.3038C60.8867 26.4723 60.7514 26.6914 60.4124 26.7851C60.3959 26.7902 60.3795 26.7914 60.3618 26.7914Z" fill="black"/>
<path d="M75.6717 19.7814C75.6717 19.7814 80.023 19.157 84.306 19.0329C84.306 19.0329 89.9375 34.0928 89.9375 35.0401C89.9375 35.9875 87.2394 38.1354 84.5653 36.4257C80.104 33.5735 77.3173 34.5462 75.1189 35.0604C71.8238 35.8317 75.6717 19.7814 75.6717 19.7814Z" fill="white"/>
<path d="M78.7328 34.2815C80.343 34.2815 82.2619 34.7273 84.6678 36.2661C86.364 37.3502 87.9085 36.7207 88.4929 36.4003C89.2784 35.9697 89.7477 35.3707 89.7477 35.0401C89.7477 34.3752 86.4336 25.2691 84.1757 19.2266C80.4012 19.3457 76.5659 19.8498 75.826 19.9511C74.9393 23.6885 73.0545 33.2657 74.5092 34.7311C74.6622 34.8843 74.8418 34.9312 75.0759 34.8755C75.2264 34.84 75.382 34.8033 75.5388 34.764C76.4787 34.5348 77.5184 34.2815 78.7328 34.2815ZM86.6663 37.2565C86.0061 37.2565 85.2496 37.088 84.4629 36.5852C80.3797 33.975 77.7461 34.6171 75.6286 35.1338C75.4705 35.1718 75.3149 35.2098 75.1619 35.2465C74.8026 35.3301 74.4839 35.2453 74.241 34.9996C72.3196 33.0644 75.3567 20.2791 75.487 19.7358C75.5047 19.661 75.5667 19.6041 75.6438 19.5927C75.6881 19.5863 80.0559 18.967 84.2997 18.8429C84.3819 18.8416 84.4553 18.8898 84.4831 18.9657C85.0612 20.5109 90.1272 34.0864 90.1272 35.0401C90.1272 35.5606 89.5162 36.2724 88.675 36.7334C88.3019 36.9386 87.5746 37.2565 86.6663 37.2565Z" fill="black"/>
<path d="M61.9512 28.1909C62.4926 28.8507 63.4856 30.1945 65.7877 30.9417C70.3895 32.4374 73.2318 29.4004 73.2318 29.4004L72.8359 38.4913C72.8359 38.4913 75.0596 39.8103 75.0596 39.6937C75.0596 39.577 76.0311 19.4153 76.0311 19.4153C76.0311 19.4153 74.2362 19.4445 73.4355 20.5856C72.6348 21.7267 69.6065 26.4406 66.123 26.4976C64.5393 26.5229 63.7727 25.8669 63.2718 25.687L61.9512 28.1909Z" fill="#5479F7"/>
<path d="M70.2346 22.7399H78.6501C78.9145 22.7399 79.1662 22.9628 79.2105 23.2377L81.1205 35.0414C81.1648 35.3162 80.9864 35.5391 80.7208 35.5391H72.3065C72.0409 35.5391 71.7892 35.3162 71.7449 35.0414L69.8349 23.2377C69.7906 22.9628 69.9702 22.7399 70.2346 22.7399Z" fill="white"/>
<path d="M70.2348 22.9299C70.1665 22.9299 70.1095 22.954 70.0703 23.0008C70.026 23.0515 70.0096 23.125 70.0222 23.2073L71.9323 35.011C71.9626 35.1947 72.1334 35.3492 72.3067 35.3492H80.721C80.7893 35.3492 80.8462 35.3251 80.8854 35.2783C80.9297 35.2263 80.9461 35.1529 80.9335 35.0718L79.0234 23.2681C78.9943 23.0844 78.8223 22.9299 78.6503 22.9299H70.2348ZM80.721 35.7291H72.3067C71.9462 35.7291 71.6173 35.4404 71.5579 35.0718L69.6478 23.2681C69.6175 23.0768 69.6655 22.8907 69.7819 22.7539C69.8932 22.6222 70.0551 22.55 70.2348 22.55H78.6503C79.0095 22.55 79.3384 22.8387 79.3979 23.2073L81.3079 35.011C81.3395 35.201 81.2902 35.3884 81.1751 35.5252C81.0625 35.6569 80.9018 35.7291 80.721 35.7291Z" fill="black"/>
<path d="M79.8986 27.5159L80.0377 28.4087C80.0478 28.814 79.6835 29.1256 79.2851 29.0534L77.0917 28.6544C76.754 28.5937 76.4402 28.8609 76.4605 29.2041C76.4719 29.4004 76.5591 29.6271 76.802 29.8639C76.9159 29.9741 78.8613 31.4585 80.3564 31.1887C80.4222 31.1773 81.8225 31.9651 81.8756 31.9271C82.1109 31.7586 82.2753 31.2204 82.3272 30.7682C82.331 30.729 81.166 30.0717 81.0496 29.7107C80.9269 29.3384 81.0256 29.0661 80.8789 28.429C80.7056 27.683 79.8986 27.5159 79.8986 27.5159Z" fill="white"/>
<path d="M82.1385 30.7454C82.1385 30.7467 82.1385 30.7467 82.1385 30.7467C82.1385 30.7467 82.1385 30.7467 82.1385 30.7454ZM82.1917 30.8986H82.1929H82.1917ZM80.3626 30.9974C80.4334 30.9974 80.5409 31.0494 81.1064 31.347C81.3391 31.4686 81.6705 31.6421 81.8274 31.7117C81.9501 31.5572 82.069 31.2165 82.1246 30.8505C82.0892 30.8265 82.0449 30.7973 82.0032 30.7707C81.482 30.4275 80.9659 30.0691 80.8685 29.7702C80.8015 29.565 80.7927 29.3852 80.7851 29.1952C80.7762 29.0027 80.7661 28.7836 80.694 28.472C80.6093 28.1098 80.3449 27.9085 80.1349 27.8046L80.2247 28.3783C80.226 28.3872 80.2272 28.3948 80.2272 28.4037C80.2336 28.6544 80.1286 28.8912 79.9376 29.0546C79.7478 29.218 79.4974 29.2851 79.2507 29.2408L77.0574 28.8419C76.9511 28.8229 76.8436 28.852 76.7626 28.9242C76.6855 28.9926 76.6437 29.0914 76.65 29.1939C76.6602 29.3738 76.755 29.5536 76.9346 29.7271C77.1332 29.9146 78.9762 31.2431 80.3221 31.0012C80.3373 30.9987 80.3487 30.9974 80.3626 30.9974ZM81.8818 32.1234C81.7755 32.1234 81.5756 32.0208 80.9305 31.6826C80.7092 31.5674 80.441 31.4268 80.3423 31.3837C78.703 31.6408 76.6867 30.0172 76.6703 29.9994C76.4211 29.7575 76.287 29.4941 76.2706 29.2155C76.2579 28.9964 76.3465 28.7861 76.5122 28.6392C76.6804 28.4898 76.903 28.4277 77.1244 28.467L79.3178 28.8672C79.4518 28.8912 79.5872 28.8545 79.6909 28.7659C79.7908 28.6797 79.8478 28.5556 79.8478 28.4239L79.7111 27.545C79.701 27.4842 79.7213 27.4221 79.7668 27.3791C79.8123 27.336 79.8756 27.317 79.9363 27.3297C79.9743 27.3373 80.8648 27.531 81.0633 28.3872C81.143 28.7317 81.1544 28.9786 81.1633 29.1775C81.1721 29.3548 81.1785 29.4954 81.229 29.6512C81.2936 29.8487 81.9842 30.3034 82.2119 30.4528C82.475 30.6263 82.5307 30.6631 82.5155 30.7897C82.4624 31.2482 82.2929 31.8624 81.9867 32.0815C81.9513 32.1069 81.9248 32.1234 81.8818 32.1234Z" fill="black"/>
<path d="M81.8544 30.14C82.8208 30.2971 82.9549 30.7733 84.1541 30.2464C86.8559 29.0572 86.3449 24.9043 85.8845 22.8362C85.7909 22.4119 85.672 21.9977 85.5442 21.6077C85.3089 20.8908 88.2107 20.2272 88.7242 20.7794C89.3453 21.4481 90.0005 22.2941 90.566 23.3314C92.2496 26.4191 92.7973 33.3291 87.1671 34.5766C84.2009 35.2351 81.843 32.8035 80.9943 31.7561C80.8008 31.5167 81.5787 30.0944 81.8544 30.14Z" fill="#5479F7"/>
<path d="M89.5594 33.8838C89.505 33.8838 89.4519 33.861 89.4152 33.8167C89.3469 33.7369 89.3557 33.6178 89.4354 33.5494C91.6895 31.6244 91.4998 28.4087 91.4972 28.3771C91.4909 28.2719 91.5693 28.182 91.6743 28.1744C91.7793 28.1668 91.8691 28.2466 91.8767 28.3517C91.8856 28.491 92.0791 31.7903 89.6821 33.8382C89.6467 33.8686 89.6024 33.8838 89.5594 33.8838Z" fill="black"/>
<path d="M79.656 13.8478C79.5725 13.8972 79.465 13.863 79.4283 13.7718C79.2538 13.3425 78.973 12.5091 78.4012 12.3774C77.6663 12.2077 76.4773 11.9886 76.3761 12.5699C76.2863 13.079 76.3913 13.958 75.8562 14.595C75.8043 14.6571 75.8486 14.7546 75.9119 14.8027L76.2496 15.0877C76.3204 15.1409 76.3811 15.3233 76.39 15.4119C76.4165 15.6893 76.7011 16.6506 76.796 16.7266C76.982 16.8747 77.9104 16.8165 77.9104 16.8165L78.4063 19.0075C78.4354 19.1038 78.3772 19.2064 78.2798 19.2304L77.3943 19.5318C77.3943 19.5318 78.1052 20.5311 80.329 20.3804C81.7495 20.2841 82.7892 19.2811 82.7892 19.2811C82.7892 19.2811 80.0266 18.8885 79.6535 15.6184C79.6459 15.5474 79.6763 15.4765 79.7344 15.4322C79.9545 15.2663 80.5478 14.7787 80.4441 14.2835C80.334 13.7579 79.9419 13.6781 79.656 13.8478Z" fill="white"/>
<path d="M79.6562 13.8478H79.6575H79.6562ZM77.75 19.6116C78.0801 19.87 78.853 20.2892 80.3153 20.1904C81.2349 20.1284 81.9913 19.6623 82.3783 19.3735C81.5751 19.1215 79.765 18.2666 79.4652 15.6399C79.45 15.5019 79.5095 15.3651 79.6208 15.2815C79.7903 15.1523 80.3393 14.7052 80.2583 14.3228C80.2217 14.1442 80.1457 14.0251 80.0408 13.9783C79.9547 13.9415 79.8498 13.9529 79.7524 14.0112C79.6651 14.0631 79.5601 14.0745 79.464 14.0428C79.3678 14.0099 79.2919 13.9377 79.2527 13.844L79.2046 13.7224C79.0478 13.3247 78.7847 12.6611 78.3584 12.5623C77.4527 12.3534 76.8772 12.3242 76.6482 12.4762C76.5989 12.5091 76.5723 12.5484 76.5622 12.6028C76.542 12.7206 76.5319 12.8688 76.5218 13.0259C76.4876 13.5287 76.4459 14.1505 76.0436 14.6647L76.3725 14.9421C76.5015 15.0408 76.5698 15.2941 76.5787 15.3942C76.604 15.645 76.8418 16.4277 76.9265 16.5834C77.0366 16.6316 77.4793 16.6531 77.8993 16.6278C77.9903 16.6214 78.0751 16.6835 78.0953 16.7747L78.5924 18.9645C78.6165 19.0493 78.6051 19.1544 78.5545 19.2406C78.5064 19.3254 78.4293 19.3862 78.3357 19.4128L77.75 19.6116ZM79.8814 20.5856C77.9359 20.5856 77.2693 19.6838 77.2402 19.642C77.2048 19.5939 77.1947 19.5318 77.2137 19.4736C77.2314 19.4166 77.2769 19.3723 77.3326 19.352L78.2193 19.0506C78.2243 19.0493 78.2294 19.048 78.2332 19.0468L77.7614 17.0141C77.3832 17.0305 76.862 17.0217 76.6786 16.8747C76.4965 16.7304 76.2207 15.631 76.2017 15.4309C76.1967 15.3739 76.1549 15.2612 76.1284 15.2334L75.7906 14.9471C75.7135 14.8901 75.6566 14.7939 75.6464 14.6951C75.6363 14.6128 75.6603 14.5342 75.7109 14.4735C76.0727 14.0428 76.1119 13.4653 76.1423 13.0005C76.1537 12.8333 76.165 12.675 76.1891 12.537C76.2169 12.3799 76.3029 12.2495 76.4383 12.1596C76.7722 11.9392 77.3895 11.9493 78.4432 12.1925C79.0643 12.3356 79.3602 13.0854 79.5576 13.5819L79.5905 13.6667C79.7865 13.5616 80.0041 13.5476 80.1925 13.6312C80.4126 13.7275 80.567 13.9453 80.6302 14.2442C80.7479 14.8091 80.1913 15.3271 79.8485 15.5842C79.8447 15.588 79.8422 15.593 79.8422 15.5981C80.1951 18.6858 82.7894 19.0898 82.816 19.0936C82.8881 19.1038 82.9476 19.1532 82.9703 19.2228C82.9918 19.2925 82.9729 19.3672 82.921 19.4179C82.8767 19.4609 81.8142 20.4703 80.3418 20.5691C80.1812 20.5805 80.0281 20.5856 79.8814 20.5856Z" fill="black"/>
</svg>
